<?xml version="1.0" encoding="UTF-8" standalone="no"?>
<!-- Created with Inkscape (http://www.inkscape.org/) -->

<svg
   xmlns:dc="http://purl.org/dc/elements/1.1/"
   xmlns:cc="http://creativecommons.org/ns#"
   xmlns:rdf="http://www.w3.org/1999/02/22-rdf-syntax-ns#"
   xmlns:svg="http://www.w3.org/2000/svg"
   xmlns="http://www.w3.org/2000/svg"
   xmlns:sodipodi="http://sodipodi.sourceforge.net/DTD/sodipodi-0.dtd"
   xmlns:inkscape="http://www.inkscape.org/namespaces/inkscape"
   width="210mm"
   height="297mm"
   id="svg2"
   version="1.1"
   inkscape:version="0.48.4 r9939"
   sodipodi:docname="Nouveau document 1">
  <defs
     id="defs4" />
  <sodipodi:namedview
     id="base"
     pagecolor="#ffffff"
     bordercolor="#666666"
     borderopacity="1.0"
     inkscape:pageopacity="0.0"
     inkscape:pageshadow="2"
     inkscape:zoom="0.7"
     inkscape:cx="372.31529"
     inkscape:cy="537.05934"
     inkscape:document-units="px"
     inkscape:current-layer="layer1"
     showgrid="false"
     inkscape:window-width="1680"
     inkscape:window-height="988"
     inkscape:window-x="-8"
     inkscape:window-y="-8"
     inkscape:window-maximized="1" />
  <metadata
     id="metadata7">
    <rdf:RDF>
      <cc:Work
         rdf:about="">
        <dc:format>image/svg+xml</dc:format>
        <dc:type
           rdf:resource="http://purl.org/dc/dcmitype/StillImage" />
        <dc:title></dc:title>
      </cc:Work>
    </rdf:RDF>
  </metadata>
  <g
     inkscape:label="Calque 1"
     inkscape:groupmode="layer"
     id="layer1">
    <g
       id="g3827">
      <path
         id="path2987"
         style="fill:#000000"
         d="m 214.34152,143.07711 c -3.6193,0.11232 -7.51715,1.44933 -11.9375,4.9375 -10.82696,-4.1763 -21.32709,-5.62719 -30.71875,2.875 -14.49386,-1.88076 -19.21029,2.00074 -22.78125,6.53125 -3.18255,-0.0659 -23.81885,-3.27207 -33.28125,10.84375 -23.781648,-2.81342 -31.296778,13.98787 -22.78125,29.65625 -4.856911,7.51895 -9.889503,14.94723 1.46875,29.28125 -4.018006,7.98351 -1.527431,16.64403 7.9375,27.125 -2.497857,11.2226 2.41208,19.14086 11.21875,25.3125 -1.64709,15.35756 14.08351,24.28743 18.78125,27.46875 1.80368,8.94868 5.56291,17.3927 23.53125,22.0625 2.96323,13.3361 13.76206,15.63906 24.21875,18.4375 -34.56193,20.08954 -64.20067,46.52266 -64,111.375 l -5.0625,9.03125 C 71.304402,492.1169 35.649973,569.58087 91.40402,632.54586 c 3.641871,19.70838 9.74959,33.86396 15.1875,49.53125 8.13383,63.13058 61.21763,92.69161 75.21875,96.1875 20.51653,15.62812 42.36818,30.45672 71.9375,40.84375 27.87515,28.74946 58.07388,39.7064 88.4375,39.6875 0.44515,-2.8e-4 0.89853,0.005 1.34375,0 30.36363,0.0189 60.56235,-10.93804 88.4375,-39.6875 29.56932,-10.38703 51.42097,-25.21563 71.9375,-40.84375 14.00112,-3.49589 67.08492,-33.05692 75.21875,-96.1875 5.43791,-15.66729 11.54562,-29.82287 15.1875,-49.53125 55.75404,-62.96499 20.09961,-140.42896 -19.53125,-164.53125 l -5.0625,-9.03125 c 0.20067,-64.85234 -29.43807,-91.28546 -64,-111.375 10.45669,-2.79844 21.25552,-5.1014 24.21875,-18.4375 17.96834,-4.6698 21.72758,-13.11382 23.53125,-22.0625 4.69775,-3.18132 20.42834,-12.11119 18.78125,-27.46875 8.80668,-6.17164 13.71661,-14.0899 11.21875,-25.3125 9.46494,-10.48097 11.9555,-19.14149 7.9375,-27.125 11.35825,-14.33402 6.32566,-21.7623 1.46875,-29.28125 8.51553,-15.66838 1.0004,-32.46967 -22.78125,-29.65625 -9.4624,-14.11582 -30.0987,-10.90962 -33.28125,-10.84375 -3.57096,-4.53051 -8.28739,-8.41201 -22.78125,-6.53125 -9.39166,-8.50219 -19.89179,-7.0513 -30.71875,-2.875 -12.8592,-10.14741 -21.37226,-2.0133 -31.09375,1.0625 -15.57385,-5.08778 -19.13302,1.88091 -26.78125,4.71875 -16.97525,-3.58808 -22.1356,4.22353 -30.28125,12.46875 l -9.46875,-0.1875 c -25.61054,15.09312 -38.33378,45.8255 -42.84375,61.625 -4.51206,-15.80198 -17.20647,-46.53454 -42.8125,-61.625 l -9.46875,0.1875 c -8.14565,-8.24522 -13.306,-16.05683 -30.28125,-12.46875 -7.64823,-2.83784 -11.2074,-9.80653 -26.78125,-4.71875 -6.37973,-2.01849 -12.24667,-6.21443 -19.15625,-6 z"
         inkscape:connector-curvature="0" />
      <path
         id="path2989"
         style="fill:#75a928"
         d="m 163.35836,209.47644 c 67.94767,35.03136 107.44689,63.36897 129.08717,87.50447 -11.08235,44.41759 -68.89638,46.44464 -90.03559,45.19858 4.32842,-2.01474 7.93988,-4.42778 9.22051,-8.13574 -5.30449,-3.76981 -24.11289,-0.39719 -37.24363,-7.77416 5.04407,-1.04499 7.40348,-2.06302 9.76289,-5.78542 -12.40571,-3.9567 -25.76862,-7.36642 -33.62775,-13.92116 4.24126,0.0524 8.20116,0.9488 13.74037,-2.89271 -11.11169,-5.98819 -22.96911,-10.73351 -32.18139,-19.88738 5.74521,-0.14063 11.93945,-0.0568 13.74037,-2.16953 -10.17044,-6.30068 -18.75124,-13.30787 -25.85359,-20.97215 8.03998,0.97052 11.43528,0.13478 13.37878,-1.26556 -7.68779,-7.87419 -17.41756,-14.52319 -22.05691,-24.22644 5.96961,2.05748 11.43125,2.84506 15.36752,-0.18079 -2.61237,-5.89346 -13.80541,-9.36962 -20.24897,-23.14168 6.28436,0.60938 12.94961,1.37111 14.28276,0 -2.92231,-11.88856 -7.92746,-18.57003 -12.8364,-25.492 13.45004,-0.19973 33.82775,0.0523 32.90457,-1.08477 l -8.31654,-8.49734 c 13.13762,-3.53724 26.58065,0.56817 36.33966,3.61589 4.38186,-3.45768 -0.0776,-7.82998 -5.42383,-12.29401 11.16496,1.49064 21.25382,4.05739 30.37345,7.59336 4.87238,-4.39933 -3.16389,-8.79866 -7.05098,-13.19799 17.24936,3.27257 24.55716,7.87068 31.81981,12.47481 5.26935,-5.0508 0.30166,-9.3433 -3.2543,-13.74037 13.00566,4.81705 19.70478,11.03555 26.75756,17.17546 2.39119,-3.22705 6.07494,-5.5924 1.62715,-13.37878 9.23416,5.32273 16.18926,11.59506 21.33374,18.62182 5.71336,-3.63794 3.40387,-8.61302 3.43509,-13.19799 9.59665,7.80652 15.68687,16.11395 23.14168,24.22645 1.50169,-1.09344 2.81661,-4.80171 3.97747,-10.66687 22.89539,22.21181 55.24591,78.15824 8.31654,100.34086 -39.91877,-32.94716 -87.61613,-56.88753 -140.47721,-74.84886 z"
         inkscape:connector-curvature="0" />
      <path
         id="path2991"
         style="fill:#75a928"
         d="m 523.89139,209.47644 c -67.94767,35.03136 -107.44689,63.36897 -129.08717,87.50447 11.08235,44.41759 68.89638,46.44464 90.03559,45.19858 -4.32842,-2.01474 -7.93988,-4.42778 -9.22051,-8.13574 5.30449,-3.76981 24.11289,-0.39719 37.24363,-7.77416 -5.04407,-1.04499 -7.40348,-2.06302 -9.76289,-5.78542 12.40571,-3.9567 25.76862,-7.36642 33.62775,-13.92116 -4.24126,0.0524 -8.20116,0.9488 -13.74037,-2.89271 11.11169,-5.98819 22.96911,-10.73351 32.18139,-19.88738 -5.74521,-0.14063 -11.93945,-0.0568 -13.74037,-2.16953 10.17044,-6.30068 18.75124,-13.30787 25.85359,-20.97215 -8.03998,0.97052 -11.43528,0.13478 -13.37878,-1.26556 7.68779,-7.87419 17.41756,-14.52319 22.05691,-24.22644 -5.96961,2.05748 -11.43125,2.84506 -15.36752,-0.18079 2.61237,-5.89346 13.80541,-9.36962 20.24897,-23.14168 -6.28436,0.60938 -12.94961,1.37111 -14.28276,0 2.92231,-11.88856 7.92746,-18.57002 12.8364,-25.492 -13.45004,-0.19973 -33.82775,0.0524 -32.90457,-1.08477 l 8.31654,-8.49734 c -13.13762,-3.53724 -26.58065,0.56817 -36.33966,3.61589 -4.38186,-3.45768 0.0776,-7.82998 5.42383,-12.29401 -11.16496,1.49064 -21.25382,4.05739 -30.37345,7.59336 -4.87238,-4.39933 3.16389,-8.79866 7.05098,-13.19799 -17.24936,3.27257 -24.55716,7.87068 -31.81981,12.47481 -5.26935,-5.0508 -0.30166,-9.3433 3.2543,-13.74037 -13.00566,4.81705 -19.70478,11.03555 -26.75756,17.17546 -2.39119,-3.22705 -6.07494,-5.5924 -1.62715,-13.37878 -9.23416,5.32273 -16.18926,11.59506 -21.33374,18.62182 -5.71336,-3.63794 -3.40387,-8.61302 -3.43509,-13.19799 -9.59665,7.80652 -15.68687,16.11395 -23.14168,24.22645 -1.50169,-1.09344 -2.81661,-4.80171 -3.97747,-10.66687 -22.89539,22.21181 -55.24591,78.15824 -8.31654,100.34086 39.91877,-32.94716 87.61613,-56.88753 140.47721,-74.84886 z"
         inkscape:connector-curvature="0" />
      <path
         id="path2993"
         style="fill:#bc1142"
         d="m 425.91286,661.7819 a 81.390111,75.051762 0 0 1 -162.78022,0 81.390111,75.051762 0 1 1 162.78022,0 z"
         inkscape:connector-curvature="0" />
      <path
         id="path2995"
         style="fill:#bc1142"
         d="M 297.42054,447.38328 A 72.998838,86.129673 34.034226 1 1 202.4527,591.09554 72.998838,86.129673 34.034226 0 1 297.42054,447.38328 z"
         inkscape:connector-curvature="0" />
      <path
         id="path2997"
         style="fill:#bc1142"
         d="M 388.4527,443.38328 A 86.129673,72.998838 55.965774 1 0 483.42054,587.09554 86.129673,72.998838 55.965774 0 0 388.4527,443.38328 z"
         inkscape:connector-curvature="0" />
      <path
         id="path2999"
         style="fill:#bc1142"
         d="m 128.87677,483.50866 c 36.41422,-9.75692 12.29159,150.63651 -17.33338,137.47577 C 78.956623,594.77175 68.460321,518.009 128.87677,483.50866 z"
         inkscape:connector-curvature="0" />
      <path
         id="path3001"
         style="fill:#bc1142"
         d="M 549.6448,481.50866 C 513.23058,471.75174 537.3532,632.14517 566.97818,618.98443 599.56495,592.77175 610.06125,516.009 549.6448,481.50866 z"
         inkscape:connector-curvature="0" />
      <path
         id="path3003"
         style="fill:#bc1142"
         d="m 425.9381,362.07426 c 62.83486,-10.61013 115.11594,26.72229 113.01138,94.85796 -2.06693,26.12112 -136.15872,-90.96907 -113.01138,-94.85796 z"
         inkscape:connector-curvature="0" />
      <path
         id="path3005"
         style="fill:#bc1142"
         d="m 252.32627,360.07426 c -62.83486,-10.61013 -115.11594,26.72229 -113.01138,94.85796 2.06693,26.12112 136.15872,-90.96907 113.01138,-94.85796 z"
         inkscape:connector-curvature="0" />
      <path
         id="path3007"
         style="fill:#bc1142"
         d="m 342.58584,344.17654 c -37.50259,-0.97548 -73.49548,27.83418 -73.58158,44.54443 -0.10462,20.30426 29.6512,41.09266 73.83726,41.62035 45.12305,0.32321 73.91561,-16.64049 74.0611,-37.59409 0.16484,-23.73996 -41.03879,-48.93744 -74.31678,-48.57069 z"
         inkscape:connector-curvature="0" />
      <path
         id="path3009"
         style="fill:#bc1142"
         d="m 344.87589,760.53761 c 32.69744,-1.42711 76.57083,10.53196 76.6568,26.39598 0.5427,15.4052 -39.78969,50.21055 -78.82634,49.53765 -40.42729,1.74391 -80.06908,-33.11559 -79.54951,-45.19859 -0.60506,-17.71593 49.226,-31.54796 81.71905,-30.73504 z"
         inkscape:connector-curvature="0" />
      <path
         id="path3011"
         style="fill:#bc1142"
         d="m 224.10526,666.52455 c 23.2791,28.04573 33.89066,77.31899 14.46355,91.84353 -18.37917,11.08784 -63.01228,6.52162 -94.73624,-39.05157 -21.39505,-38.24168 -18.63758,-77.15663 -3.61588,-88.58924 22.46442,-13.68429 57.17342,4.79902 83.88857,35.79728 z"
         inkscape:connector-curvature="0" />
      <path
         id="path3013"
         style="fill:#bc1142"
         d="m 460.98742,657.63263 c -25.18682,29.50165 -39.21227,83.30951 -20.83785,100.6428 17.56828,13.46361 64.7292,11.58162 99.56566,-36.75574 25.29599,-32.46471 16.82013,-86.68225 2.37077,-101.07511 -21.46408,-16.60213 -52.27691,4.64489 -81.09858,37.18805 z"
         inkscape:connector-curvature="0" />
    </g>
    <g
       id="g3823"
       transform="matrix(1.1827498,0,0,1.1827498,-82.476611,-167.46528)"
       style="stroke-width:40;stroke-miterlimit:4;stroke-dasharray:none">
      <path
         transform="translate(-3.2428372,0)"
         sodipodi:open="true"
         sodipodi:end="10.467964"
         sodipodi:start="5.2395349"
         d="m 421.78806,546.83618 c 55.91347,32.54665 74.85603,104.25774 42.30938,160.17121 -32.54664,55.91347 -104.25774,74.85603 -160.17121,42.30938 -55.91347,-32.54664 -74.85602,-104.25774 -42.30938,-160.17121 10.19352,-17.51194 24.75517,-32.08035 42.26238,-42.282"
         sodipodi:ry="117.14286"
         sodipodi:rx="117.14286"
         sodipodi:cy="648.07648"
         sodipodi:cx="362.85715"
         id="path3051"
         style="fill:none;stroke:#ffffff;stroke-width:40;stroke-linecap:round;stroke-miterlimit:4;stroke-opacity:1;stroke-dasharray:none"
         sodipodi:type="arc" />
      <path
         inkscape:connector-curvature="0"
         id="path3821"
         d="m 359.61431,642.0575 0,-149.50257"
         style="fill:none;stroke:#ffffff;stroke-width:40;stroke-linecap:round;stroke-linejoin:miter;stroke-miterlimit:4;stroke-opacity:1;stroke-dasharray:none" />
    </g>
  </g>
</svg>
