M48
METRIC,TZ
T1C0.600
T2C0.701
T3C0.762
T4C0.800
T5C0.813
T6C1.001
T7C1.016
T8C1.143
T9C1.524
%
G90
G05
T1
X156400Y-155000
X156400Y-159000
X156400Y-170000
X162400Y-155000
X162400Y-159000
X162400Y-170000
T2
X148200Y-134520
X148200Y-144680
X152100Y-134520
X152100Y-144680
T3
X167590Y-140290
X167590Y-147910
X170130Y-140290
X170130Y-147910
X172670Y-140290
X172670Y-147910
X175210Y-140290
X175210Y-147910
T4
X163200Y-143030
X163200Y-145570
T5
X166230Y-159170
X168770Y-156630
X168770Y-159170
X170330Y-176400
X172870Y-176400
X177230Y-176500
X179770Y-176500
X198500Y-175900
X201400Y-175900
X204200Y-175900
T6
X158500Y-139420
X158500Y-149580
X165920Y-153400
X172900Y-161320
X172900Y-171480
X176080Y-153400
X178400Y-161320
X178400Y-171480
X178600Y-140120
X178600Y-150280
T7
X145760Y-127730
X145760Y-130270
X148300Y-127730
X148300Y-130270
X150840Y-127730
X150840Y-130270
X153380Y-127730
X153380Y-130270
X155920Y-127730
X155920Y-130270
X158460Y-127730
X158460Y-130270
X161000Y-127730
X161000Y-130270
X163540Y-127730
X163540Y-130270
X166080Y-127730
X166080Y-130270
X168620Y-127730
X168620Y-130270
X171160Y-127730
X171160Y-130270
X173700Y-127730
X173700Y-130270
X176240Y-127730
X176240Y-130270
T8
X187860Y-177480
X192940Y-167320
T9
X147800Y-148960
X147800Y-154040
X147800Y-160860
X147800Y-165940
T0
M30
