%FSLAX46Y46*%
G04 Gerber Fmt 4.6, Leading zero omitted, Abs format (unit mm)*
G04 Created by KiCad (PCBNEW (2014-09-02 BZR 5112)-product) date dim. 28 sept. 2014 14:48:00 CEST*
%MOMM*%
G01*
G04 APERTURE LIST*
%ADD10C,0.150000*%
%ADD11C,1.501140*%
%ADD12C,1.676400*%
%ADD13C,1.699260*%
%ADD14R,1.699260X1.699260*%
%ADD15C,1.905000*%
%ADD16C,1.000000*%
%ADD17R,2.540000X2.540000*%
%ADD18C,2.540000*%
%ADD19C,1.998980*%
%ADD20R,1.524000X1.524000*%
%ADD21C,1.524000*%
%ADD22R,1.397000X1.397000*%
%ADD23C,1.397000*%
%ADD24C,0.800000*%
%ADD25C,0.254000*%
G04 APERTURE END LIST*
D10*
D11*
X163200000Y-145570000D03*
X163200000Y-143030000D03*
D12*
X177230000Y-176500000D03*
X179770000Y-176500000D03*
D13*
X148200000Y-144680000D03*
D14*
X148200000Y-134520000D03*
D13*
X152100000Y-134520000D03*
D14*
X152100000Y-144680000D03*
D12*
X170330000Y-176400000D03*
X172870000Y-176400000D03*
D15*
X167590000Y-147910000D03*
X170130000Y-147910000D03*
X172670000Y-147910000D03*
X175210000Y-147910000D03*
X175210000Y-140290000D03*
X172670000Y-140290000D03*
X170130000Y-140290000D03*
X167590000Y-140290000D03*
D16*
X162400000Y-159000000D03*
X156400000Y-159000000D03*
X156400000Y-170000000D03*
X162400000Y-155000000D03*
X162400000Y-170000000D03*
X156400000Y-155000000D03*
D17*
X147800000Y-154040000D03*
D18*
X147800000Y-148960000D03*
D17*
X147800000Y-160860000D03*
D18*
X147800000Y-165940000D03*
D19*
X178400000Y-171480000D03*
X178400000Y-161320000D03*
X158500000Y-149580000D03*
X158500000Y-139420000D03*
X165920000Y-153400000D03*
X176080000Y-153400000D03*
X172900000Y-161320000D03*
X172900000Y-171480000D03*
X178600000Y-140120000D03*
X178600000Y-150280000D03*
D18*
X192940000Y-167320000D03*
X187860000Y-177480000D03*
D20*
X145760000Y-130270000D03*
D21*
X145760000Y-127730000D03*
X148300000Y-130270000D03*
X148300000Y-127730000D03*
X150840000Y-130270000D03*
X150840000Y-127730000D03*
X153380000Y-130270000D03*
X153380000Y-127730000D03*
X155920000Y-130270000D03*
X155920000Y-127730000D03*
X158460000Y-130270000D03*
X158460000Y-127730000D03*
X161000000Y-130270000D03*
X161000000Y-127730000D03*
X163540000Y-130270000D03*
X163540000Y-127730000D03*
X166080000Y-130270000D03*
X166080000Y-127730000D03*
X168620000Y-130270000D03*
X168620000Y-127730000D03*
X171160000Y-130270000D03*
X171160000Y-127730000D03*
X173700000Y-130270000D03*
X173700000Y-127730000D03*
X176240000Y-130270000D03*
X176240000Y-127730000D03*
D22*
X166230000Y-159170000D03*
D23*
X168770000Y-159170000D03*
X168770000Y-156630000D03*
D21*
X201400000Y-175900000D03*
X204200000Y-175900000D03*
X198500000Y-175900000D03*
D24*
X145760000Y-130270000D02*
X145230000Y-130270000D01*
X145230000Y-130270000D02*
X144200000Y-131300000D01*
X144200000Y-131300000D02*
X144200000Y-175200000D01*
X144200000Y-175200000D02*
X149200000Y-180200000D01*
X149200000Y-180200000D02*
X199900000Y-180200000D01*
X199900000Y-180200000D02*
X204200000Y-175900000D01*
X147800000Y-154040000D02*
X147800000Y-153500000D01*
X172870000Y-145570000D02*
X175210000Y-147910000D01*
X163200000Y-145570000D02*
X172870000Y-145570000D01*
X153240000Y-144680000D02*
X158500000Y-139420000D01*
X152100000Y-144680000D02*
X153240000Y-144680000D01*
X158500000Y-141100000D02*
X160430000Y-143030000D01*
X160430000Y-143030000D02*
X163200000Y-143030000D01*
X158500000Y-139420000D02*
X158500000Y-141100000D01*
X163200000Y-141200000D02*
X164110000Y-140290000D01*
X164110000Y-140290000D02*
X167590000Y-140290000D01*
X163200000Y-143030000D02*
X163200000Y-141200000D01*
X167590000Y-143190000D02*
X169600000Y-144547499D01*
X169600000Y-144547499D02*
X178200000Y-144547499D01*
X178200000Y-144547499D02*
X180800000Y-147800000D01*
X180800000Y-147800000D02*
X180800000Y-163700000D01*
X180800000Y-163700000D02*
X175800000Y-168700000D01*
X175800000Y-168700000D02*
X175800000Y-175070000D01*
X175800000Y-175070000D02*
X177230000Y-176500000D01*
X167590000Y-140290000D02*
X167590000Y-143190000D01*
X178400000Y-173200000D02*
X179770000Y-174570000D01*
X179770000Y-174570000D02*
X179770000Y-176500000D01*
X178400000Y-171480000D02*
X178400000Y-173200000D01*
X147800000Y-148960000D02*
X153260000Y-148960000D01*
X158100000Y-157300000D02*
X156400000Y-159000000D01*
X158100000Y-153800000D02*
X158100000Y-157300000D01*
X153260000Y-148960000D02*
X158100000Y-153800000D01*
X148200000Y-144680000D02*
X148200000Y-148560000D01*
X148200000Y-148560000D02*
X147800000Y-148960000D01*
X148200000Y-144680000D02*
X148200000Y-144900000D01*
X156400000Y-159000000D02*
X156400000Y-159100000D01*
X156400000Y-159100000D02*
X159200000Y-161900000D01*
X159200000Y-166800000D02*
X162400000Y-170000000D01*
X159200000Y-161900000D02*
X159200000Y-166800000D01*
X148200000Y-134520000D02*
X152100000Y-134520000D01*
X170920000Y-171480000D02*
X170330000Y-172070000D01*
X170330000Y-172070000D02*
X170330000Y-176400000D01*
X172900000Y-171480000D02*
X170920000Y-171480000D01*
X160520000Y-149580000D02*
X162190000Y-147910000D01*
X162190000Y-147910000D02*
X167590000Y-147910000D01*
X158500000Y-149580000D02*
X160520000Y-149580000D01*
X170130000Y-154230000D02*
X172900000Y-157000000D01*
X172900000Y-157000000D02*
X172900000Y-161320000D01*
X170130000Y-147910000D02*
X170130000Y-154230000D01*
X176080000Y-151780000D02*
X176080000Y-153400000D01*
X172670000Y-148370000D02*
X176080000Y-151780000D01*
X172670000Y-147910000D02*
X172670000Y-148370000D01*
X175220000Y-140280000D02*
X175210000Y-140290000D01*
X177710000Y-140290000D02*
X178600000Y-140120000D01*
X175210000Y-140290000D02*
X177710000Y-140290000D01*
X175210000Y-137810000D02*
X175210000Y-140290000D01*
X170900000Y-133500000D02*
X175210000Y-137810000D01*
X161100000Y-133500000D02*
X170900000Y-133500000D01*
X158460000Y-130860000D02*
X161100000Y-133500000D01*
X158460000Y-130270000D02*
X158460000Y-130860000D01*
X192940000Y-167320000D02*
X186320000Y-167320000D01*
X174880000Y-142500000D02*
X172670000Y-140290000D01*
X177900000Y-142500000D02*
X174880000Y-142500000D01*
X182300000Y-146900000D02*
X177900000Y-142500000D01*
X182300000Y-163300000D02*
X182300000Y-146900000D01*
X186320000Y-167320000D02*
X182300000Y-163300000D01*
X162570000Y-159170000D02*
X162400000Y-159000000D01*
X166230000Y-159170000D02*
X162570000Y-159170000D01*
X149140000Y-160860000D02*
X155000000Y-155000000D01*
X155000000Y-155000000D02*
X156400000Y-155000000D01*
X147800000Y-160860000D02*
X149140000Y-160860000D01*
X158460000Y-127730000D02*
X158460000Y-126840000D01*
X198500000Y-167000000D02*
X198500000Y-175900000D01*
X196500000Y-165000000D02*
X198500000Y-167000000D01*
X186300000Y-165000000D02*
X196500000Y-165000000D01*
X183800000Y-162500000D02*
X186300000Y-165000000D01*
X183800000Y-146500000D02*
X183800000Y-162500000D01*
X181000000Y-143700000D02*
X183800000Y-146500000D01*
X181000000Y-129700000D02*
X181000000Y-143700000D01*
X177100000Y-125800000D02*
X181000000Y-129700000D01*
X159500000Y-125800000D02*
X177100000Y-125800000D01*
X158460000Y-126840000D02*
X159500000Y-125800000D01*
X165920000Y-153780000D02*
X168770000Y-156630000D01*
X165920000Y-153400000D02*
X165920000Y-153780000D01*
D25*
G36*
X158126288Y-125710000D02*
X157728144Y-126108144D01*
X157503785Y-126443923D01*
X157437592Y-126776689D01*
X157276371Y-126937630D01*
X157190050Y-127145512D01*
X157105010Y-126939697D01*
X156712370Y-126546371D01*
X156199100Y-126333243D01*
X155643339Y-126332758D01*
X155129697Y-126544990D01*
X154736371Y-126937630D01*
X154650050Y-127145512D01*
X154565010Y-126939697D01*
X154172370Y-126546371D01*
X153659100Y-126333243D01*
X153103339Y-126332758D01*
X152589697Y-126544990D01*
X152196371Y-126937630D01*
X152116605Y-127129727D01*
X152062397Y-126998857D01*
X151820213Y-126929392D01*
X151640608Y-127108997D01*
X151640608Y-126749787D01*
X151571143Y-126507603D01*
X151047698Y-126320856D01*
X150492632Y-126348638D01*
X150108857Y-126507603D01*
X150039392Y-126749787D01*
X150840000Y-127550395D01*
X151640608Y-126749787D01*
X151640608Y-127108997D01*
X151019605Y-127730000D01*
X151820213Y-128530608D01*
X152062397Y-128461143D01*
X152112508Y-128320682D01*
X152194990Y-128520303D01*
X152587630Y-128913629D01*
X152795512Y-128999949D01*
X152589697Y-129084990D01*
X152196371Y-129477630D01*
X152110050Y-129685512D01*
X152025010Y-129479697D01*
X151632370Y-129086371D01*
X151440272Y-129006605D01*
X151571143Y-128952397D01*
X151640608Y-128710213D01*
X150840000Y-127909605D01*
X150039392Y-128710213D01*
X150108857Y-128952397D01*
X150249317Y-129002508D01*
X150049697Y-129084990D01*
X149656371Y-129477630D01*
X149570050Y-129685512D01*
X149485010Y-129479697D01*
X149092370Y-129086371D01*
X148884487Y-129000050D01*
X149090303Y-128915010D01*
X149483629Y-128522370D01*
X149563394Y-128330272D01*
X149617603Y-128461143D01*
X149859787Y-128530608D01*
X150660395Y-127730000D01*
X149859787Y-126929392D01*
X149617603Y-126998857D01*
X149567491Y-127139317D01*
X149485010Y-126939697D01*
X149092370Y-126546371D01*
X148579100Y-126333243D01*
X148023339Y-126332758D01*
X147509697Y-126544990D01*
X147116371Y-126937630D01*
X147030050Y-127145512D01*
X146945010Y-126939697D01*
X146552370Y-126546371D01*
X146039100Y-126333243D01*
X145483339Y-126332758D01*
X144969697Y-126544990D01*
X144576371Y-126937630D01*
X144363243Y-127450900D01*
X144362758Y-128006661D01*
X144574990Y-128520303D01*
X144927071Y-128873000D01*
X144871691Y-128873000D01*
X144638302Y-128969673D01*
X144459673Y-129148301D01*
X144363000Y-129381690D01*
X144363000Y-129634309D01*
X144363000Y-129673288D01*
X144210000Y-129826288D01*
X144210000Y-125710000D01*
X158126288Y-125710000D01*
X158126288Y-125710000D01*
G37*
X158126288Y-125710000D02*
X157728144Y-126108144D01*
X157503785Y-126443923D01*
X157437592Y-126776689D01*
X157276371Y-126937630D01*
X157190050Y-127145512D01*
X157105010Y-126939697D01*
X156712370Y-126546371D01*
X156199100Y-126333243D01*
X155643339Y-126332758D01*
X155129697Y-126544990D01*
X154736371Y-126937630D01*
X154650050Y-127145512D01*
X154565010Y-126939697D01*
X154172370Y-126546371D01*
X153659100Y-126333243D01*
X153103339Y-126332758D01*
X152589697Y-126544990D01*
X152196371Y-126937630D01*
X152116605Y-127129727D01*
X152062397Y-126998857D01*
X151820213Y-126929392D01*
X151640608Y-127108997D01*
X151640608Y-126749787D01*
X151571143Y-126507603D01*
X151047698Y-126320856D01*
X150492632Y-126348638D01*
X150108857Y-126507603D01*
X150039392Y-126749787D01*
X150840000Y-127550395D01*
X151640608Y-126749787D01*
X151640608Y-127108997D01*
X151019605Y-127730000D01*
X151820213Y-128530608D01*
X152062397Y-128461143D01*
X152112508Y-128320682D01*
X152194990Y-128520303D01*
X152587630Y-128913629D01*
X152795512Y-128999949D01*
X152589697Y-129084990D01*
X152196371Y-129477630D01*
X152110050Y-129685512D01*
X152025010Y-129479697D01*
X151632370Y-129086371D01*
X151440272Y-129006605D01*
X151571143Y-128952397D01*
X151640608Y-128710213D01*
X150840000Y-127909605D01*
X150039392Y-128710213D01*
X150108857Y-128952397D01*
X150249317Y-129002508D01*
X150049697Y-129084990D01*
X149656371Y-129477630D01*
X149570050Y-129685512D01*
X149485010Y-129479697D01*
X149092370Y-129086371D01*
X148884487Y-129000050D01*
X149090303Y-128915010D01*
X149483629Y-128522370D01*
X149563394Y-128330272D01*
X149617603Y-128461143D01*
X149859787Y-128530608D01*
X150660395Y-127730000D01*
X149859787Y-126929392D01*
X149617603Y-126998857D01*
X149567491Y-127139317D01*
X149485010Y-126939697D01*
X149092370Y-126546371D01*
X148579100Y-126333243D01*
X148023339Y-126332758D01*
X147509697Y-126544990D01*
X147116371Y-126937630D01*
X147030050Y-127145512D01*
X146945010Y-126939697D01*
X146552370Y-126546371D01*
X146039100Y-126333243D01*
X145483339Y-126332758D01*
X144969697Y-126544990D01*
X144576371Y-126937630D01*
X144363243Y-127450900D01*
X144362758Y-128006661D01*
X144574990Y-128520303D01*
X144927071Y-128873000D01*
X144871691Y-128873000D01*
X144638302Y-128969673D01*
X144459673Y-129148301D01*
X144363000Y-129381690D01*
X144363000Y-129634309D01*
X144363000Y-129673288D01*
X144210000Y-129826288D01*
X144210000Y-125710000D01*
X158126288Y-125710000D01*
G36*
X162955512Y-128999949D02*
X162749697Y-129084990D01*
X162356371Y-129477630D01*
X162270050Y-129685512D01*
X162185010Y-129479697D01*
X161792370Y-129086371D01*
X161600272Y-129006605D01*
X161731143Y-128952397D01*
X161800608Y-128710213D01*
X161000000Y-127909605D01*
X160199392Y-128710213D01*
X160268857Y-128952397D01*
X160409317Y-129002508D01*
X160209697Y-129084990D01*
X159816371Y-129477630D01*
X159730050Y-129685512D01*
X159645010Y-129479697D01*
X159252370Y-129086371D01*
X159044487Y-129000050D01*
X159250303Y-128915010D01*
X159643629Y-128522370D01*
X159723394Y-128330272D01*
X159777603Y-128461143D01*
X160019787Y-128530608D01*
X160820395Y-127730000D01*
X160806252Y-127715857D01*
X160985857Y-127536252D01*
X161000000Y-127550395D01*
X161014142Y-127536252D01*
X161193747Y-127715857D01*
X161179605Y-127730000D01*
X161980213Y-128530608D01*
X162222397Y-128461143D01*
X162272508Y-128320682D01*
X162354990Y-128520303D01*
X162747630Y-128913629D01*
X162955512Y-128999949D01*
X162955512Y-128999949D01*
G37*
X162955512Y-128999949D02*
X162749697Y-129084990D01*
X162356371Y-129477630D01*
X162270050Y-129685512D01*
X162185010Y-129479697D01*
X161792370Y-129086371D01*
X161600272Y-129006605D01*
X161731143Y-128952397D01*
X161800608Y-128710213D01*
X161000000Y-127909605D01*
X160199392Y-128710213D01*
X160268857Y-128952397D01*
X160409317Y-129002508D01*
X160209697Y-129084990D01*
X159816371Y-129477630D01*
X159730050Y-129685512D01*
X159645010Y-129479697D01*
X159252370Y-129086371D01*
X159044487Y-129000050D01*
X159250303Y-128915010D01*
X159643629Y-128522370D01*
X159723394Y-128330272D01*
X159777603Y-128461143D01*
X160019787Y-128530608D01*
X160820395Y-127730000D01*
X160806252Y-127715857D01*
X160985857Y-127536252D01*
X161000000Y-127550395D01*
X161014142Y-127536252D01*
X161193747Y-127715857D01*
X161179605Y-127730000D01*
X161980213Y-128530608D01*
X162222397Y-128461143D01*
X162272508Y-128320682D01*
X162354990Y-128520303D01*
X162747630Y-128913629D01*
X162955512Y-128999949D01*
G36*
X170575512Y-128999949D02*
X170369697Y-129084990D01*
X169976371Y-129477630D01*
X169890050Y-129685512D01*
X169805010Y-129479697D01*
X169412370Y-129086371D01*
X169220272Y-129006605D01*
X169351143Y-128952397D01*
X169420608Y-128710213D01*
X168620000Y-127909605D01*
X167819392Y-128710213D01*
X167888857Y-128952397D01*
X168029317Y-129002508D01*
X167829697Y-129084990D01*
X167436371Y-129477630D01*
X167350050Y-129685512D01*
X167265010Y-129479697D01*
X166872370Y-129086371D01*
X166664487Y-129000050D01*
X166870303Y-128915010D01*
X167263629Y-128522370D01*
X167343394Y-128330272D01*
X167397603Y-128461143D01*
X167639787Y-128530608D01*
X168440395Y-127730000D01*
X168426252Y-127715857D01*
X168605857Y-127536252D01*
X168620000Y-127550395D01*
X168634142Y-127536252D01*
X168813747Y-127715857D01*
X168799605Y-127730000D01*
X169600213Y-128530608D01*
X169842397Y-128461143D01*
X169892508Y-128320682D01*
X169974990Y-128520303D01*
X170367630Y-128913629D01*
X170575512Y-128999949D01*
X170575512Y-128999949D01*
G37*
X170575512Y-128999949D02*
X170369697Y-129084990D01*
X169976371Y-129477630D01*
X169890050Y-129685512D01*
X169805010Y-129479697D01*
X169412370Y-129086371D01*
X169220272Y-129006605D01*
X169351143Y-128952397D01*
X169420608Y-128710213D01*
X168620000Y-127909605D01*
X167819392Y-128710213D01*
X167888857Y-128952397D01*
X168029317Y-129002508D01*
X167829697Y-129084990D01*
X167436371Y-129477630D01*
X167350050Y-129685512D01*
X167265010Y-129479697D01*
X166872370Y-129086371D01*
X166664487Y-129000050D01*
X166870303Y-128915010D01*
X167263629Y-128522370D01*
X167343394Y-128330272D01*
X167397603Y-128461143D01*
X167639787Y-128530608D01*
X168440395Y-127730000D01*
X168426252Y-127715857D01*
X168605857Y-127536252D01*
X168620000Y-127550395D01*
X168634142Y-127536252D01*
X168813747Y-127715857D01*
X168799605Y-127730000D01*
X169600213Y-128530608D01*
X169842397Y-128461143D01*
X169892508Y-128320682D01*
X169974990Y-128520303D01*
X170367630Y-128913629D01*
X170575512Y-128999949D01*
G36*
X179965000Y-139173845D02*
X179527073Y-138735154D01*
X178926547Y-138485794D01*
X178276306Y-138485226D01*
X177675345Y-138733538D01*
X177649144Y-138759693D01*
X177649144Y-130477698D01*
X177621362Y-129922632D01*
X177462397Y-129538857D01*
X177220213Y-129469392D01*
X176419605Y-130270000D01*
X177220213Y-131070608D01*
X177462397Y-131001143D01*
X177649144Y-130477698D01*
X177649144Y-138759693D01*
X177215154Y-139192927D01*
X177189379Y-139255000D01*
X177040608Y-139255000D01*
X177040608Y-131250213D01*
X176240000Y-130449605D01*
X175439392Y-131250213D01*
X175508857Y-131492397D01*
X176032302Y-131679144D01*
X176587368Y-131651362D01*
X176971143Y-131492397D01*
X177040608Y-131250213D01*
X177040608Y-139255000D01*
X176419912Y-139255000D01*
X176245000Y-139079781D01*
X176245000Y-137810000D01*
X176166215Y-137413923D01*
X176166215Y-137413922D01*
X176076349Y-137279428D01*
X175941856Y-137078144D01*
X175941852Y-137078141D01*
X171631856Y-132768144D01*
X171296077Y-132543785D01*
X170900000Y-132464999D01*
X170899994Y-132465000D01*
X161528711Y-132465000D01*
X160730476Y-131666765D01*
X161276661Y-131667242D01*
X161790303Y-131455010D01*
X162183629Y-131062370D01*
X162269949Y-130854487D01*
X162354990Y-131060303D01*
X162747630Y-131453629D01*
X163260900Y-131666757D01*
X163816661Y-131667242D01*
X164330303Y-131455010D01*
X164723629Y-131062370D01*
X164809949Y-130854487D01*
X164894990Y-131060303D01*
X165287630Y-131453629D01*
X165800900Y-131666757D01*
X166356661Y-131667242D01*
X166870303Y-131455010D01*
X167263629Y-131062370D01*
X167349949Y-130854487D01*
X167434990Y-131060303D01*
X167827630Y-131453629D01*
X168340900Y-131666757D01*
X168896661Y-131667242D01*
X169410303Y-131455010D01*
X169803629Y-131062370D01*
X169889949Y-130854487D01*
X169974990Y-131060303D01*
X170367630Y-131453629D01*
X170880900Y-131666757D01*
X171436661Y-131667242D01*
X171950303Y-131455010D01*
X172343629Y-131062370D01*
X172429949Y-130854487D01*
X172514990Y-131060303D01*
X172907630Y-131453629D01*
X173420900Y-131666757D01*
X173976661Y-131667242D01*
X174490303Y-131455010D01*
X174883629Y-131062370D01*
X174963394Y-130870272D01*
X175017603Y-131001143D01*
X175259787Y-131070608D01*
X176060395Y-130270000D01*
X175259787Y-129469392D01*
X175017603Y-129538857D01*
X174967491Y-129679317D01*
X174885010Y-129479697D01*
X174492370Y-129086371D01*
X174284487Y-129000050D01*
X174490303Y-128915010D01*
X174883629Y-128522370D01*
X174969949Y-128314487D01*
X175054990Y-128520303D01*
X175447630Y-128913629D01*
X175639727Y-128993394D01*
X175508857Y-129047603D01*
X175439392Y-129289787D01*
X176240000Y-130090395D01*
X177040608Y-129289787D01*
X176971143Y-129047603D01*
X176830682Y-128997491D01*
X177030303Y-128915010D01*
X177423629Y-128522370D01*
X177636757Y-128009100D01*
X177636938Y-127800650D01*
X179965000Y-130128711D01*
X179965000Y-139173845D01*
X179965000Y-139173845D01*
G37*
X179965000Y-139173845D02*
X179527073Y-138735154D01*
X178926547Y-138485794D01*
X178276306Y-138485226D01*
X177675345Y-138733538D01*
X177649144Y-138759693D01*
X177649144Y-130477698D01*
X177621362Y-129922632D01*
X177462397Y-129538857D01*
X177220213Y-129469392D01*
X176419605Y-130270000D01*
X177220213Y-131070608D01*
X177462397Y-131001143D01*
X177649144Y-130477698D01*
X177649144Y-138759693D01*
X177215154Y-139192927D01*
X177189379Y-139255000D01*
X177040608Y-139255000D01*
X177040608Y-131250213D01*
X176240000Y-130449605D01*
X175439392Y-131250213D01*
X175508857Y-131492397D01*
X176032302Y-131679144D01*
X176587368Y-131651362D01*
X176971143Y-131492397D01*
X177040608Y-131250213D01*
X177040608Y-139255000D01*
X176419912Y-139255000D01*
X176245000Y-139079781D01*
X176245000Y-137810000D01*
X176166215Y-137413923D01*
X176166215Y-137413922D01*
X176076349Y-137279428D01*
X175941856Y-137078144D01*
X175941852Y-137078141D01*
X171631856Y-132768144D01*
X171296077Y-132543785D01*
X170900000Y-132464999D01*
X170899994Y-132465000D01*
X161528711Y-132465000D01*
X160730476Y-131666765D01*
X161276661Y-131667242D01*
X161790303Y-131455010D01*
X162183629Y-131062370D01*
X162269949Y-130854487D01*
X162354990Y-131060303D01*
X162747630Y-131453629D01*
X163260900Y-131666757D01*
X163816661Y-131667242D01*
X164330303Y-131455010D01*
X164723629Y-131062370D01*
X164809949Y-130854487D01*
X164894990Y-131060303D01*
X165287630Y-131453629D01*
X165800900Y-131666757D01*
X166356661Y-131667242D01*
X166870303Y-131455010D01*
X167263629Y-131062370D01*
X167349949Y-130854487D01*
X167434990Y-131060303D01*
X167827630Y-131453629D01*
X168340900Y-131666757D01*
X168896661Y-131667242D01*
X169410303Y-131455010D01*
X169803629Y-131062370D01*
X169889949Y-130854487D01*
X169974990Y-131060303D01*
X170367630Y-131453629D01*
X170880900Y-131666757D01*
X171436661Y-131667242D01*
X171950303Y-131455010D01*
X172343629Y-131062370D01*
X172429949Y-130854487D01*
X172514990Y-131060303D01*
X172907630Y-131453629D01*
X173420900Y-131666757D01*
X173976661Y-131667242D01*
X174490303Y-131455010D01*
X174883629Y-131062370D01*
X174963394Y-130870272D01*
X175017603Y-131001143D01*
X175259787Y-131070608D01*
X176060395Y-130270000D01*
X175259787Y-129469392D01*
X175017603Y-129538857D01*
X174967491Y-129679317D01*
X174885010Y-129479697D01*
X174492370Y-129086371D01*
X174284487Y-129000050D01*
X174490303Y-128915010D01*
X174883629Y-128522370D01*
X174969949Y-128314487D01*
X175054990Y-128520303D01*
X175447630Y-128913629D01*
X175639727Y-128993394D01*
X175508857Y-129047603D01*
X175439392Y-129289787D01*
X176240000Y-130090395D01*
X177040608Y-129289787D01*
X176971143Y-129047603D01*
X176830682Y-128997491D01*
X177030303Y-128915010D01*
X177423629Y-128522370D01*
X177636757Y-128009100D01*
X177636938Y-127800650D01*
X179965000Y-130128711D01*
X179965000Y-139173845D01*
G36*
X227790000Y-180290000D02*
X201273711Y-180290000D01*
X204266652Y-177297058D01*
X204476661Y-177297242D01*
X204990303Y-177085010D01*
X205383629Y-176692370D01*
X205596757Y-176179100D01*
X205597242Y-175623339D01*
X205385010Y-175109697D01*
X204992370Y-174716371D01*
X204479100Y-174503243D01*
X203923339Y-174502758D01*
X203409697Y-174714990D01*
X203016371Y-175107630D01*
X202803243Y-175620900D01*
X202803057Y-175833231D01*
X202795771Y-175840517D01*
X202781362Y-175552632D01*
X202622397Y-175168857D01*
X202380213Y-175099392D01*
X202200608Y-175278997D01*
X202200608Y-174919787D01*
X202131143Y-174677603D01*
X201607698Y-174490856D01*
X201052632Y-174518638D01*
X200668857Y-174677603D01*
X200599392Y-174919787D01*
X201400000Y-175720395D01*
X202200608Y-174919787D01*
X202200608Y-175278997D01*
X201579605Y-175900000D01*
X201593747Y-175914142D01*
X201414142Y-176093747D01*
X201400000Y-176079605D01*
X201220395Y-176259210D01*
X201220395Y-175900000D01*
X200419787Y-175099392D01*
X200177603Y-175168857D01*
X199990856Y-175692302D01*
X200018638Y-176247368D01*
X200177603Y-176631143D01*
X200419787Y-176700608D01*
X201220395Y-175900000D01*
X201220395Y-176259210D01*
X200599392Y-176880213D01*
X200668857Y-177122397D01*
X201192302Y-177309144D01*
X201334249Y-177302039D01*
X199471288Y-179165000D01*
X189774261Y-179165000D01*
X189774261Y-177808964D01*
X189754436Y-177051368D01*
X189502657Y-176443520D01*
X189207777Y-176311828D01*
X189028172Y-176491433D01*
X189028172Y-176132223D01*
X188896480Y-175837343D01*
X188188964Y-175565739D01*
X187431368Y-175585564D01*
X186823520Y-175837343D01*
X186691828Y-176132223D01*
X187860000Y-177300395D01*
X189028172Y-176132223D01*
X189028172Y-176491433D01*
X188039605Y-177480000D01*
X189207777Y-178648172D01*
X189502657Y-178516480D01*
X189774261Y-177808964D01*
X189774261Y-179165000D01*
X188794255Y-179165000D01*
X188896480Y-179122657D01*
X189028172Y-178827777D01*
X187860000Y-177659605D01*
X187680395Y-177839210D01*
X187680395Y-177480000D01*
X186512223Y-176311828D01*
X186217343Y-176443520D01*
X185945739Y-177151036D01*
X185965564Y-177908632D01*
X186217343Y-178516480D01*
X186512223Y-178648172D01*
X187680395Y-177480000D01*
X187680395Y-177839210D01*
X186691828Y-178827777D01*
X186823520Y-179122657D01*
X186933821Y-179165000D01*
X174534774Y-179165000D01*
X174534774Y-171156306D01*
X174286462Y-170555345D01*
X173827073Y-170095154D01*
X173226547Y-169845794D01*
X172576306Y-169845226D01*
X171975345Y-170093538D01*
X171623269Y-170445000D01*
X170920005Y-170445000D01*
X170920000Y-170444999D01*
X170523923Y-170523785D01*
X170188144Y-170748144D01*
X170115927Y-170820361D01*
X170115927Y-159362520D01*
X170103731Y-159138035D01*
X170103731Y-156365914D01*
X169901146Y-155875620D01*
X169526353Y-155500173D01*
X169036413Y-155296732D01*
X168900324Y-155296613D01*
X167488498Y-153884787D01*
X167554206Y-153726547D01*
X167554774Y-153076306D01*
X167306462Y-152475345D01*
X166847073Y-152015154D01*
X166246547Y-151765794D01*
X165596306Y-151765226D01*
X164995345Y-152013538D01*
X164535154Y-152472927D01*
X164285794Y-153073453D01*
X164285226Y-153723694D01*
X164533538Y-154324655D01*
X164992927Y-154784846D01*
X165593453Y-155034206D01*
X165710596Y-155034308D01*
X167436385Y-156760097D01*
X167436269Y-156894086D01*
X167638854Y-157384380D01*
X168013647Y-157759827D01*
X168335118Y-157893313D01*
X168077071Y-158000200D01*
X168015417Y-158235812D01*
X168770000Y-158990395D01*
X169524583Y-158235812D01*
X169462929Y-158000200D01*
X169183688Y-157901916D01*
X169524380Y-157761146D01*
X169899827Y-157386353D01*
X170103268Y-156896413D01*
X170103731Y-156365914D01*
X170103731Y-159138035D01*
X170087148Y-158832801D01*
X169939800Y-158477071D01*
X169704188Y-158415417D01*
X168949605Y-159170000D01*
X169704188Y-159924583D01*
X169939800Y-159862929D01*
X170115927Y-159362520D01*
X170115927Y-170820361D01*
X169598144Y-171338144D01*
X169524583Y-171448236D01*
X169524583Y-160104188D01*
X168770000Y-159349605D01*
X168590395Y-159529210D01*
X168590395Y-159170000D01*
X167835812Y-158415417D01*
X167600200Y-158477071D01*
X167563500Y-158581342D01*
X167563500Y-158345191D01*
X167466827Y-158111802D01*
X167288199Y-157933173D01*
X167054810Y-157836500D01*
X166802191Y-157836500D01*
X165405191Y-157836500D01*
X165171802Y-157933173D01*
X164993173Y-158111801D01*
X164983563Y-158135000D01*
X163535197Y-158135000D01*
X163535197Y-154775225D01*
X163362767Y-154357914D01*
X163043765Y-154038355D01*
X162626756Y-153865197D01*
X162175225Y-153864803D01*
X161757914Y-154037233D01*
X161438355Y-154356235D01*
X161265197Y-154773244D01*
X161264803Y-155224775D01*
X161437233Y-155642086D01*
X161756235Y-155961645D01*
X162173244Y-156134803D01*
X162624775Y-156135197D01*
X163042086Y-155962767D01*
X163361645Y-155643765D01*
X163534803Y-155226756D01*
X163535197Y-154775225D01*
X163535197Y-158135000D01*
X163140241Y-158135000D01*
X163043765Y-158038355D01*
X162626756Y-157865197D01*
X162175225Y-157864803D01*
X161757914Y-158037233D01*
X161438355Y-158356235D01*
X161265197Y-158773244D01*
X161264803Y-159224775D01*
X161437233Y-159642086D01*
X161756235Y-159961645D01*
X162173244Y-160134803D01*
X162217289Y-160134841D01*
X162217290Y-160134841D01*
X162570000Y-160205000D01*
X164983564Y-160205000D01*
X164993173Y-160228198D01*
X165171801Y-160406827D01*
X165405190Y-160503500D01*
X165657809Y-160503500D01*
X167054809Y-160503500D01*
X167288198Y-160406827D01*
X167466827Y-160228199D01*
X167563500Y-159994810D01*
X167563500Y-159774327D01*
X167600200Y-159862929D01*
X167835812Y-159924583D01*
X168590395Y-159170000D01*
X168590395Y-159529210D01*
X168015417Y-160104188D01*
X168077071Y-160339800D01*
X168577480Y-160515927D01*
X169107199Y-160487148D01*
X169462929Y-160339800D01*
X169524583Y-160104188D01*
X169524583Y-171448236D01*
X169373785Y-171673923D01*
X169294999Y-172070000D01*
X169295000Y-172070005D01*
X169295000Y-175351590D01*
X169081810Y-175564409D01*
X168857056Y-176105677D01*
X168856545Y-176691752D01*
X169080353Y-177233411D01*
X169494409Y-177648190D01*
X170035677Y-177872944D01*
X170621752Y-177873455D01*
X171163411Y-177649647D01*
X171578190Y-177235591D01*
X171600441Y-177182004D01*
X171834587Y-177255808D01*
X172690395Y-176400000D01*
X171834587Y-175544192D01*
X171600836Y-175617870D01*
X171579647Y-175566589D01*
X171365000Y-175351567D01*
X171365000Y-172515000D01*
X171623690Y-172515000D01*
X171972927Y-172864846D01*
X172573453Y-173114206D01*
X173223694Y-173114774D01*
X173824655Y-172866462D01*
X174284846Y-172407073D01*
X174534206Y-171806547D01*
X174534774Y-171156306D01*
X174534774Y-179165000D01*
X174354977Y-179165000D01*
X174354977Y-176625903D01*
X174328389Y-176040431D01*
X174155490Y-175623017D01*
X173905413Y-175544192D01*
X173725808Y-175723797D01*
X173725808Y-175364587D01*
X173646983Y-175114510D01*
X173095903Y-174915023D01*
X172510431Y-174941611D01*
X172093017Y-175114510D01*
X172014192Y-175364587D01*
X172870000Y-176220395D01*
X173725808Y-175364587D01*
X173725808Y-175723797D01*
X173049605Y-176400000D01*
X173905413Y-177255808D01*
X174155490Y-177176983D01*
X174354977Y-176625903D01*
X174354977Y-179165000D01*
X173725808Y-179165000D01*
X173725808Y-177435413D01*
X172870000Y-176579605D01*
X172014192Y-177435413D01*
X172093017Y-177685490D01*
X172644097Y-177884977D01*
X173229569Y-177858389D01*
X173646983Y-177685490D01*
X173725808Y-177435413D01*
X173725808Y-179165000D01*
X163535197Y-179165000D01*
X163535197Y-169775225D01*
X163362767Y-169357914D01*
X163043765Y-169038355D01*
X162801446Y-168937734D01*
X160235000Y-166371288D01*
X160235000Y-161900005D01*
X160235000Y-161900000D01*
X160235001Y-161900000D01*
X160156215Y-161503923D01*
X159931856Y-161168144D01*
X157813711Y-159049999D01*
X158831852Y-158031858D01*
X158831855Y-158031856D01*
X158831856Y-158031856D01*
X159056215Y-157696077D01*
X159135000Y-157300000D01*
X159135001Y-157300000D01*
X159135000Y-157299994D01*
X159135000Y-153800005D01*
X159135000Y-153800000D01*
X159135001Y-153800000D01*
X159056215Y-153403923D01*
X158831856Y-153068145D01*
X158831856Y-153068144D01*
X158831852Y-153068141D01*
X153991856Y-148228144D01*
X153656077Y-148003785D01*
X153260000Y-147924999D01*
X153259994Y-147925000D01*
X149433559Y-147925000D01*
X149415922Y-147882314D01*
X149235000Y-147701075D01*
X149235000Y-145744559D01*
X149457874Y-145522074D01*
X149684372Y-144976607D01*
X149684888Y-144385984D01*
X149459342Y-143840123D01*
X149042074Y-143422126D01*
X148496607Y-143195628D01*
X147905984Y-143195112D01*
X147360123Y-143420658D01*
X146942126Y-143837926D01*
X146715628Y-144383393D01*
X146715112Y-144974016D01*
X146940658Y-145519877D01*
X147165000Y-145744610D01*
X147165000Y-147161163D01*
X146722314Y-147344078D01*
X146185961Y-147879495D01*
X145895332Y-148579410D01*
X145894670Y-149337265D01*
X146184078Y-150037686D01*
X146719495Y-150574039D01*
X147419410Y-150864668D01*
X148177265Y-150865330D01*
X148877686Y-150575922D01*
X149414039Y-150040505D01*
X149432934Y-149995000D01*
X152831288Y-149995000D01*
X156754551Y-153918262D01*
X156626756Y-153865197D01*
X156175225Y-153864803D01*
X155932730Y-153965000D01*
X155000000Y-153965000D01*
X154603922Y-154043785D01*
X154469428Y-154133650D01*
X154268144Y-154268144D01*
X154268141Y-154268147D01*
X149705000Y-158831288D01*
X149705000Y-155436309D01*
X149705000Y-154325750D01*
X149705000Y-153754250D01*
X149705000Y-152643691D01*
X149608327Y-152410302D01*
X149429699Y-152231673D01*
X149196310Y-152135000D01*
X148943691Y-152135000D01*
X148085750Y-152135000D01*
X147927000Y-152293750D01*
X147927000Y-153913000D01*
X149546250Y-153913000D01*
X149705000Y-153754250D01*
X149705000Y-154325750D01*
X149546250Y-154167000D01*
X147927000Y-154167000D01*
X147927000Y-155786250D01*
X148085750Y-155945000D01*
X148943691Y-155945000D01*
X149196310Y-155945000D01*
X149429699Y-155848327D01*
X149608327Y-155669698D01*
X149705000Y-155436309D01*
X149705000Y-158831288D01*
X149457157Y-159079131D01*
X149429699Y-159051673D01*
X149196310Y-158955000D01*
X148943691Y-158955000D01*
X147673000Y-158955000D01*
X147673000Y-155786250D01*
X147673000Y-154167000D01*
X147673000Y-153913000D01*
X147673000Y-152293750D01*
X147514250Y-152135000D01*
X146656309Y-152135000D01*
X146403690Y-152135000D01*
X146170301Y-152231673D01*
X145991673Y-152410302D01*
X145895000Y-152643691D01*
X145895000Y-153754250D01*
X146053750Y-153913000D01*
X147673000Y-153913000D01*
X147673000Y-154167000D01*
X146053750Y-154167000D01*
X145895000Y-154325750D01*
X145895000Y-155436309D01*
X145991673Y-155669698D01*
X146170301Y-155848327D01*
X146403690Y-155945000D01*
X146656309Y-155945000D01*
X147514250Y-155945000D01*
X147673000Y-155786250D01*
X147673000Y-158955000D01*
X146403691Y-158955000D01*
X146170302Y-159051673D01*
X145991673Y-159230301D01*
X145895000Y-159463690D01*
X145895000Y-159716309D01*
X145895000Y-162256309D01*
X145991673Y-162489698D01*
X146170301Y-162668327D01*
X146403690Y-162765000D01*
X146656309Y-162765000D01*
X149196309Y-162765000D01*
X149429698Y-162668327D01*
X149608327Y-162489699D01*
X149705000Y-162256310D01*
X149705000Y-162003691D01*
X149705000Y-161703344D01*
X149871856Y-161591856D01*
X155428711Y-156035000D01*
X155932892Y-156035000D01*
X156173244Y-156134803D01*
X156624775Y-156135197D01*
X157042086Y-155962767D01*
X157065000Y-155939892D01*
X157065000Y-156871288D01*
X155998438Y-157937850D01*
X155757914Y-158037233D01*
X155438355Y-158356235D01*
X155265197Y-158773244D01*
X155264803Y-159224775D01*
X155437233Y-159642086D01*
X155756235Y-159961645D01*
X155827542Y-159991254D01*
X158165000Y-162328712D01*
X158165000Y-166799994D01*
X158164999Y-166800000D01*
X158243785Y-167196077D01*
X158468144Y-167531856D01*
X161337849Y-170401560D01*
X161437233Y-170642086D01*
X161756235Y-170961645D01*
X162173244Y-171134803D01*
X162624775Y-171135197D01*
X163042086Y-170962767D01*
X163361645Y-170643765D01*
X163534803Y-170226756D01*
X163535197Y-169775225D01*
X163535197Y-179165000D01*
X157535197Y-179165000D01*
X157535197Y-169775225D01*
X157362767Y-169357914D01*
X157043765Y-169038355D01*
X156626756Y-168865197D01*
X156175225Y-168864803D01*
X155757914Y-169037233D01*
X155438355Y-169356235D01*
X155265197Y-169773244D01*
X155264803Y-170224775D01*
X155437233Y-170642086D01*
X155756235Y-170961645D01*
X156173244Y-171134803D01*
X156624775Y-171135197D01*
X157042086Y-170962767D01*
X157361645Y-170643765D01*
X157534803Y-170226756D01*
X157535197Y-169775225D01*
X157535197Y-179165000D01*
X149714261Y-179165000D01*
X149714261Y-166268964D01*
X149694436Y-165511368D01*
X149442657Y-164903520D01*
X149147777Y-164771828D01*
X148968172Y-164951433D01*
X148968172Y-164592223D01*
X148836480Y-164297343D01*
X148128964Y-164025739D01*
X147371368Y-164045564D01*
X146763520Y-164297343D01*
X146631828Y-164592223D01*
X147800000Y-165760395D01*
X148968172Y-164592223D01*
X148968172Y-164951433D01*
X147979605Y-165940000D01*
X149147777Y-167108172D01*
X149442657Y-166976480D01*
X149714261Y-166268964D01*
X149714261Y-179165000D01*
X149628711Y-179165000D01*
X148968172Y-178504460D01*
X148968172Y-167287777D01*
X147800000Y-166119605D01*
X147620395Y-166299210D01*
X147620395Y-165940000D01*
X146452223Y-164771828D01*
X146157343Y-164903520D01*
X145885739Y-165611036D01*
X145905564Y-166368632D01*
X146157343Y-166976480D01*
X146452223Y-167108172D01*
X147620395Y-165940000D01*
X147620395Y-166299210D01*
X146631828Y-167287777D01*
X146763520Y-167582657D01*
X147471036Y-167854261D01*
X148228632Y-167834436D01*
X148836480Y-167582657D01*
X148968172Y-167287777D01*
X148968172Y-178504460D01*
X145235000Y-174771288D01*
X145235000Y-131728711D01*
X145296711Y-131667000D01*
X146648309Y-131667000D01*
X146881698Y-131570327D01*
X147060327Y-131391699D01*
X147157000Y-131158310D01*
X147157000Y-131102386D01*
X147507630Y-131453629D01*
X148020900Y-131666757D01*
X148576661Y-131667242D01*
X149090303Y-131455010D01*
X149483629Y-131062370D01*
X149569949Y-130854487D01*
X149654990Y-131060303D01*
X150047630Y-131453629D01*
X150560900Y-131666757D01*
X151116661Y-131667242D01*
X151630303Y-131455010D01*
X152023629Y-131062370D01*
X152109949Y-130854487D01*
X152194990Y-131060303D01*
X152587630Y-131453629D01*
X153100900Y-131666757D01*
X153656661Y-131667242D01*
X154170303Y-131455010D01*
X154563629Y-131062370D01*
X154643394Y-130870272D01*
X154697603Y-131001143D01*
X154939787Y-131070608D01*
X155740395Y-130270000D01*
X154939787Y-129469392D01*
X154697603Y-129538857D01*
X154647491Y-129679317D01*
X154565010Y-129479697D01*
X154172370Y-129086371D01*
X153964487Y-129000050D01*
X154170303Y-128915010D01*
X154563629Y-128522370D01*
X154649949Y-128314487D01*
X154734990Y-128520303D01*
X155127630Y-128913629D01*
X155319727Y-128993394D01*
X155188857Y-129047603D01*
X155119392Y-129289787D01*
X155920000Y-130090395D01*
X156720608Y-129289787D01*
X156651143Y-129047603D01*
X156510682Y-128997491D01*
X156710303Y-128915010D01*
X157103629Y-128522370D01*
X157189949Y-128314487D01*
X157274990Y-128520303D01*
X157667630Y-128913629D01*
X157875512Y-128999949D01*
X157669697Y-129084990D01*
X157276371Y-129477630D01*
X157196605Y-129669727D01*
X157142397Y-129538857D01*
X156900213Y-129469392D01*
X156099605Y-130270000D01*
X156900213Y-131070608D01*
X157142397Y-131001143D01*
X157192508Y-130860682D01*
X157274990Y-131060303D01*
X157571319Y-131357150D01*
X157728144Y-131591856D01*
X160368141Y-134231852D01*
X160368144Y-134231856D01*
X160368145Y-134231856D01*
X160703923Y-134456215D01*
X161100000Y-134535001D01*
X161100000Y-134535000D01*
X161100005Y-134535000D01*
X170471288Y-134535000D01*
X174175000Y-138238711D01*
X174175000Y-139080087D01*
X173939742Y-139314934D01*
X173570421Y-138944968D01*
X172987159Y-138702776D01*
X172355612Y-138702225D01*
X171771928Y-138943398D01*
X171399742Y-139314934D01*
X171030421Y-138944968D01*
X170447159Y-138702776D01*
X169815612Y-138702225D01*
X169231928Y-138943398D01*
X168859742Y-139314934D01*
X168490421Y-138944968D01*
X167907159Y-138702776D01*
X167275612Y-138702225D01*
X166691928Y-138943398D01*
X166379781Y-139255000D01*
X164110000Y-139255000D01*
X163713922Y-139333785D01*
X163579428Y-139423650D01*
X163378144Y-139558144D01*
X163378141Y-139558147D01*
X162468144Y-140468144D01*
X162243785Y-140803923D01*
X162164999Y-141200000D01*
X162165000Y-141200005D01*
X162165000Y-141995000D01*
X160858711Y-141995000D01*
X159547521Y-140683809D01*
X159884846Y-140347073D01*
X160134206Y-139746547D01*
X160134774Y-139096306D01*
X159886462Y-138495345D01*
X159427073Y-138035154D01*
X158826547Y-137785794D01*
X158176306Y-137785226D01*
X157575345Y-138033538D01*
X157115154Y-138492927D01*
X156865794Y-139093453D01*
X156865359Y-139590929D01*
X156720608Y-139735679D01*
X156720608Y-131250213D01*
X155920000Y-130449605D01*
X155119392Y-131250213D01*
X155188857Y-131492397D01*
X155712302Y-131679144D01*
X156267368Y-131651362D01*
X156651143Y-131492397D01*
X156720608Y-131250213D01*
X156720608Y-139735679D01*
X153584888Y-142871399D01*
X153584888Y-134225984D01*
X153359342Y-133680123D01*
X152942074Y-133262126D01*
X152396607Y-133035628D01*
X151805984Y-133035112D01*
X151260123Y-133260658D01*
X151035389Y-133485000D01*
X149660166Y-133485000D01*
X149587957Y-133310672D01*
X149409329Y-133132043D01*
X149175940Y-133035370D01*
X148923321Y-133035370D01*
X147224061Y-133035370D01*
X146990672Y-133132043D01*
X146812043Y-133310671D01*
X146715370Y-133544060D01*
X146715370Y-133796679D01*
X146715370Y-135495939D01*
X146812043Y-135729328D01*
X146990671Y-135907957D01*
X147224060Y-136004630D01*
X147476679Y-136004630D01*
X149175939Y-136004630D01*
X149409328Y-135907957D01*
X149587957Y-135729329D01*
X149660166Y-135555000D01*
X151035440Y-135555000D01*
X151257926Y-135777874D01*
X151803393Y-136004372D01*
X152394016Y-136004888D01*
X152939877Y-135779342D01*
X153357874Y-135362074D01*
X153584372Y-134816607D01*
X153584888Y-134225984D01*
X153584888Y-142871399D01*
X153206739Y-143249548D01*
X153075940Y-143195370D01*
X152823321Y-143195370D01*
X151124061Y-143195370D01*
X150890672Y-143292043D01*
X150712043Y-143470671D01*
X150615370Y-143704060D01*
X150615370Y-143956679D01*
X150615370Y-145655939D01*
X150712043Y-145889328D01*
X150890671Y-146067957D01*
X151124060Y-146164630D01*
X151376679Y-146164630D01*
X153075939Y-146164630D01*
X153309328Y-146067957D01*
X153487957Y-145889329D01*
X153584630Y-145655940D01*
X153584630Y-145646448D01*
X153636077Y-145636215D01*
X153971856Y-145411856D01*
X157681511Y-141702200D01*
X157768144Y-141831856D01*
X159698141Y-143761852D01*
X159698144Y-143761856D01*
X159899428Y-143896349D01*
X160033922Y-143986215D01*
X160033923Y-143986215D01*
X160430000Y-144065001D01*
X160430000Y-144065000D01*
X160430005Y-144065000D01*
X162275411Y-144065000D01*
X162414113Y-144203944D01*
X162629496Y-144293378D01*
X162475735Y-144357069D01*
X162407675Y-144598070D01*
X163200000Y-145390395D01*
X163992325Y-144598070D01*
X163924265Y-144357069D01*
X163758959Y-144298231D01*
X163983837Y-144205314D01*
X164373944Y-143815887D01*
X164585329Y-143306816D01*
X164585810Y-142755602D01*
X164375314Y-142246163D01*
X164235000Y-142105603D01*
X164235000Y-141628711D01*
X164538711Y-141325000D01*
X166380087Y-141325000D01*
X166555000Y-141500218D01*
X166555000Y-143190000D01*
X166574391Y-143287484D01*
X166573898Y-143386884D01*
X166613402Y-143483609D01*
X166633785Y-143586077D01*
X166689008Y-143668724D01*
X166726590Y-143760742D01*
X166800096Y-143834980D01*
X166858144Y-143921856D01*
X166940792Y-143977079D01*
X167010726Y-144047710D01*
X169020726Y-145405209D01*
X169117052Y-145445669D01*
X169203923Y-145503714D01*
X169301410Y-145523105D01*
X169393052Y-145561598D01*
X169497529Y-145562116D01*
X169600000Y-145582499D01*
X177702314Y-145582499D01*
X179765000Y-148162840D01*
X179765000Y-149091716D01*
X179686838Y-149013554D01*
X179572556Y-149127835D01*
X179473958Y-148861035D01*
X178864418Y-148634599D01*
X178214623Y-148658659D01*
X177726042Y-148861035D01*
X177627443Y-149127837D01*
X178600000Y-150100395D01*
X178614142Y-150086252D01*
X178793747Y-150265857D01*
X178779605Y-150280000D01*
X178793747Y-150294142D01*
X178614142Y-150473747D01*
X178600000Y-150459605D01*
X178420395Y-150639210D01*
X178420395Y-150280000D01*
X177447837Y-149307443D01*
X177181035Y-149406042D01*
X176954599Y-150015582D01*
X176978659Y-150665377D01*
X177181035Y-151153958D01*
X177447837Y-151252557D01*
X178420395Y-150280000D01*
X178420395Y-150639210D01*
X177627443Y-151432163D01*
X177726042Y-151698965D01*
X178335582Y-151925401D01*
X178985377Y-151901341D01*
X179473958Y-151698965D01*
X179572556Y-151432164D01*
X179572557Y-151432165D01*
X179686838Y-151546446D01*
X179765000Y-151468284D01*
X179765000Y-160426098D01*
X179572557Y-160354979D01*
X179552163Y-160347443D01*
X179372557Y-160527048D01*
X179372557Y-160167837D01*
X179273958Y-159901035D01*
X178664418Y-159674599D01*
X178014623Y-159698659D01*
X177714774Y-159822859D01*
X177714774Y-153076306D01*
X177466462Y-152475345D01*
X177115000Y-152123269D01*
X177115000Y-151780005D01*
X177115000Y-151780000D01*
X177115001Y-151780000D01*
X177036215Y-151383923D01*
X177036215Y-151383922D01*
X176946349Y-151249428D01*
X176811856Y-151048144D01*
X176811852Y-151048141D01*
X176808675Y-151044964D01*
X176808675Y-148163199D01*
X176783878Y-147532139D01*
X176590088Y-147064288D01*
X176328159Y-146971446D01*
X176148554Y-147151051D01*
X176148554Y-146791841D01*
X176055712Y-146529912D01*
X175463199Y-146311325D01*
X174832139Y-146336122D01*
X174364288Y-146529912D01*
X174271446Y-146791841D01*
X175210000Y-147730395D01*
X176148554Y-146791841D01*
X176148554Y-147151051D01*
X175389605Y-147910000D01*
X176328159Y-148848554D01*
X176590088Y-148755712D01*
X176808675Y-148163199D01*
X176808675Y-151044964D01*
X175260454Y-149496743D01*
X175587861Y-149483878D01*
X176055712Y-149290088D01*
X176148554Y-149028159D01*
X175210000Y-148089605D01*
X175195857Y-148103747D01*
X175016252Y-147924142D01*
X175030395Y-147910000D01*
X174091841Y-146971446D01*
X174006416Y-147001725D01*
X173570421Y-146564968D01*
X172987159Y-146322776D01*
X172355612Y-146322225D01*
X171771928Y-146563398D01*
X171399742Y-146934934D01*
X171030421Y-146564968D01*
X170447159Y-146322776D01*
X169815612Y-146322225D01*
X169231928Y-146563398D01*
X168859742Y-146934934D01*
X168490421Y-146564968D01*
X167907159Y-146322776D01*
X167275612Y-146322225D01*
X166691928Y-146563398D01*
X166379781Y-146875000D01*
X164597767Y-146875000D01*
X164597767Y-145774966D01*
X164569805Y-145224462D01*
X164412931Y-144845735D01*
X164171930Y-144777675D01*
X163379605Y-145570000D01*
X164171930Y-146362325D01*
X164412931Y-146294265D01*
X164597767Y-145774966D01*
X164597767Y-146875000D01*
X163701990Y-146875000D01*
X163924265Y-146782931D01*
X163992325Y-146541930D01*
X163200000Y-145749605D01*
X163020395Y-145929210D01*
X163020395Y-145570000D01*
X162228070Y-144777675D01*
X161987069Y-144845735D01*
X161802233Y-145365034D01*
X161830195Y-145915538D01*
X161987069Y-146294265D01*
X162228070Y-146362325D01*
X163020395Y-145570000D01*
X163020395Y-145929210D01*
X162407675Y-146541930D01*
X162475735Y-146782931D01*
X162734403Y-146875000D01*
X162190005Y-146875000D01*
X162190000Y-146874999D01*
X161793923Y-146953785D01*
X161458144Y-147178144D01*
X161458141Y-147178147D01*
X160091288Y-148545000D01*
X159776309Y-148545000D01*
X159427073Y-148195154D01*
X158826547Y-147945794D01*
X158176306Y-147945226D01*
X157575345Y-148193538D01*
X157115154Y-148652927D01*
X156865794Y-149253453D01*
X156865226Y-149903694D01*
X157113538Y-150504655D01*
X157572927Y-150964846D01*
X158173453Y-151214206D01*
X158823694Y-151214774D01*
X159424655Y-150966462D01*
X159776730Y-150615000D01*
X160519994Y-150615000D01*
X160520000Y-150615001D01*
X160520000Y-150615000D01*
X160916077Y-150536215D01*
X161251856Y-150311856D01*
X162618711Y-148945000D01*
X166380087Y-148945000D01*
X166689579Y-149255032D01*
X167272841Y-149497224D01*
X167904388Y-149497775D01*
X168488072Y-149256602D01*
X168860257Y-148885065D01*
X169095000Y-149120218D01*
X169095000Y-154229994D01*
X169094999Y-154230000D01*
X169173785Y-154626077D01*
X169398144Y-154961856D01*
X171865000Y-157428711D01*
X171865000Y-160043690D01*
X171515154Y-160392927D01*
X171265794Y-160993453D01*
X171265226Y-161643694D01*
X171513538Y-162244655D01*
X171972927Y-162704846D01*
X172573453Y-162954206D01*
X173223694Y-162954774D01*
X173824655Y-162706462D01*
X174284846Y-162247073D01*
X174534206Y-161646547D01*
X174534774Y-160996306D01*
X174286462Y-160395345D01*
X173935000Y-160043269D01*
X173935000Y-157000005D01*
X173935000Y-157000000D01*
X173935001Y-157000000D01*
X173856215Y-156603923D01*
X173631856Y-156268145D01*
X173631856Y-156268144D01*
X173631852Y-156268141D01*
X171165000Y-153801288D01*
X171165000Y-149119912D01*
X171400257Y-148885065D01*
X171769579Y-149255032D01*
X172319786Y-149483498D01*
X175002452Y-152166163D01*
X174695154Y-152472927D01*
X174445794Y-153073453D01*
X174445226Y-153723694D01*
X174693538Y-154324655D01*
X175152927Y-154784846D01*
X175753453Y-155034206D01*
X176403694Y-155034774D01*
X177004655Y-154786462D01*
X177464846Y-154327073D01*
X177714206Y-153726547D01*
X177714774Y-153076306D01*
X177714774Y-159822859D01*
X177526042Y-159901035D01*
X177427443Y-160167837D01*
X178400000Y-161140395D01*
X179372557Y-160167837D01*
X179372557Y-160527048D01*
X178579605Y-161320000D01*
X179552163Y-162292557D01*
X179765000Y-162213901D01*
X179765000Y-163271288D01*
X179372557Y-163663731D01*
X179372557Y-162472163D01*
X178400000Y-161499605D01*
X178220395Y-161679210D01*
X178220395Y-161320000D01*
X177247837Y-160347443D01*
X176981035Y-160446042D01*
X176754599Y-161055582D01*
X176778659Y-161705377D01*
X176981035Y-162193958D01*
X177247837Y-162292557D01*
X178220395Y-161320000D01*
X178220395Y-161679210D01*
X177427443Y-162472163D01*
X177526042Y-162738965D01*
X178135582Y-162965401D01*
X178785377Y-162941341D01*
X179273958Y-162738965D01*
X179372557Y-162472163D01*
X179372557Y-163663731D01*
X175068144Y-167968144D01*
X174843785Y-168303923D01*
X174764999Y-168700000D01*
X174765000Y-168700005D01*
X174765000Y-175069994D01*
X174764999Y-175070000D01*
X174843785Y-175466077D01*
X175068144Y-175801856D01*
X175756807Y-176490519D01*
X175756545Y-176791752D01*
X175980353Y-177333411D01*
X176394409Y-177748190D01*
X176935677Y-177972944D01*
X177521752Y-177973455D01*
X178063411Y-177749647D01*
X178478190Y-177335591D01*
X178499775Y-177283608D01*
X178520353Y-177333411D01*
X178934409Y-177748190D01*
X179475677Y-177972944D01*
X180061752Y-177973455D01*
X180603411Y-177749647D01*
X181018190Y-177335591D01*
X181242944Y-176794323D01*
X181243455Y-176208248D01*
X181019647Y-175666589D01*
X180805000Y-175451567D01*
X180805000Y-174570005D01*
X180805000Y-174570000D01*
X180805001Y-174570000D01*
X180726215Y-174173923D01*
X180501856Y-173838145D01*
X180501856Y-173838144D01*
X180501852Y-173838141D01*
X179435000Y-172771288D01*
X179435000Y-172756309D01*
X179784846Y-172407073D01*
X180034206Y-171806547D01*
X180034774Y-171156306D01*
X179786462Y-170555345D01*
X179327073Y-170095154D01*
X178726547Y-169845794D01*
X178076306Y-169845226D01*
X177475345Y-170093538D01*
X177015154Y-170552927D01*
X176835000Y-170986786D01*
X176835000Y-169128711D01*
X181531852Y-164431858D01*
X181531856Y-164431856D01*
X181531856Y-164431855D01*
X181706607Y-164170319D01*
X185588141Y-168051852D01*
X185588144Y-168051856D01*
X185588145Y-168051856D01*
X185923923Y-168276215D01*
X186320000Y-168355001D01*
X186320000Y-168355000D01*
X186320005Y-168355000D01*
X191306440Y-168355000D01*
X191324078Y-168397686D01*
X191859495Y-168934039D01*
X192559410Y-169224668D01*
X193317265Y-169225330D01*
X194017686Y-168935922D01*
X194554039Y-168400505D01*
X194844668Y-167700590D01*
X194845330Y-166942735D01*
X194555922Y-166242314D01*
X194348969Y-166035000D01*
X196071288Y-166035000D01*
X197465000Y-167428711D01*
X197465000Y-174959260D01*
X197316371Y-175107630D01*
X197103243Y-175620900D01*
X197102758Y-176176661D01*
X197314990Y-176690303D01*
X197707630Y-177083629D01*
X198220900Y-177296757D01*
X198776661Y-177297242D01*
X199290303Y-177085010D01*
X199683629Y-176692370D01*
X199896757Y-176179100D01*
X199897242Y-175623339D01*
X199685010Y-175109697D01*
X199535000Y-174959424D01*
X199535000Y-167000005D01*
X199535000Y-167000000D01*
X199535001Y-167000000D01*
X199456215Y-166603923D01*
X199231856Y-166268144D01*
X199231852Y-166268141D01*
X197231856Y-164268144D01*
X196896077Y-164043785D01*
X196500000Y-163964999D01*
X196499994Y-163965000D01*
X186728711Y-163965000D01*
X184835000Y-162071288D01*
X184835000Y-146500005D01*
X184835000Y-146500000D01*
X184835001Y-146500000D01*
X184756215Y-146103923D01*
X184531856Y-145768144D01*
X182035000Y-143271288D01*
X182035000Y-129700005D01*
X182035000Y-129700000D01*
X182035001Y-129700000D01*
X181956215Y-129303923D01*
X181731856Y-128968145D01*
X181731856Y-128968144D01*
X181731852Y-128968141D01*
X178473711Y-125710000D01*
X227790000Y-125710000D01*
X227790000Y-141290000D01*
X217500000Y-141290000D01*
X217228295Y-141344046D01*
X216997954Y-141497954D01*
X216844046Y-141728295D01*
X216790000Y-142000000D01*
X216790000Y-157000000D01*
X216844046Y-157271705D01*
X216997954Y-157502046D01*
X217228295Y-157655954D01*
X217500000Y-157710000D01*
X227790000Y-157710000D01*
X227790000Y-180290000D01*
X227790000Y-180290000D01*
G37*
X227790000Y-180290000D02*
X201273711Y-180290000D01*
X204266652Y-177297058D01*
X204476661Y-177297242D01*
X204990303Y-177085010D01*
X205383629Y-176692370D01*
X205596757Y-176179100D01*
X205597242Y-175623339D01*
X205385010Y-175109697D01*
X204992370Y-174716371D01*
X204479100Y-174503243D01*
X203923339Y-174502758D01*
X203409697Y-174714990D01*
X203016371Y-175107630D01*
X202803243Y-175620900D01*
X202803057Y-175833231D01*
X202795771Y-175840517D01*
X202781362Y-175552632D01*
X202622397Y-175168857D01*
X202380213Y-175099392D01*
X202200608Y-175278997D01*
X202200608Y-174919787D01*
X202131143Y-174677603D01*
X201607698Y-174490856D01*
X201052632Y-174518638D01*
X200668857Y-174677603D01*
X200599392Y-174919787D01*
X201400000Y-175720395D01*
X202200608Y-174919787D01*
X202200608Y-175278997D01*
X201579605Y-175900000D01*
X201593747Y-175914142D01*
X201414142Y-176093747D01*
X201400000Y-176079605D01*
X201220395Y-176259210D01*
X201220395Y-175900000D01*
X200419787Y-175099392D01*
X200177603Y-175168857D01*
X199990856Y-175692302D01*
X200018638Y-176247368D01*
X200177603Y-176631143D01*
X200419787Y-176700608D01*
X201220395Y-175900000D01*
X201220395Y-176259210D01*
X200599392Y-176880213D01*
X200668857Y-177122397D01*
X201192302Y-177309144D01*
X201334249Y-177302039D01*
X199471288Y-179165000D01*
X189774261Y-179165000D01*
X189774261Y-177808964D01*
X189754436Y-177051368D01*
X189502657Y-176443520D01*
X189207777Y-176311828D01*
X189028172Y-176491433D01*
X189028172Y-176132223D01*
X188896480Y-175837343D01*
X188188964Y-175565739D01*
X187431368Y-175585564D01*
X186823520Y-175837343D01*
X186691828Y-176132223D01*
X187860000Y-177300395D01*
X189028172Y-176132223D01*
X189028172Y-176491433D01*
X188039605Y-177480000D01*
X189207777Y-178648172D01*
X189502657Y-178516480D01*
X189774261Y-177808964D01*
X189774261Y-179165000D01*
X188794255Y-179165000D01*
X188896480Y-179122657D01*
X189028172Y-178827777D01*
X187860000Y-177659605D01*
X187680395Y-177839210D01*
X187680395Y-177480000D01*
X186512223Y-176311828D01*
X186217343Y-176443520D01*
X185945739Y-177151036D01*
X185965564Y-177908632D01*
X186217343Y-178516480D01*
X186512223Y-178648172D01*
X187680395Y-177480000D01*
X187680395Y-177839210D01*
X186691828Y-178827777D01*
X186823520Y-179122657D01*
X186933821Y-179165000D01*
X174534774Y-179165000D01*
X174534774Y-171156306D01*
X174286462Y-170555345D01*
X173827073Y-170095154D01*
X173226547Y-169845794D01*
X172576306Y-169845226D01*
X171975345Y-170093538D01*
X171623269Y-170445000D01*
X170920005Y-170445000D01*
X170920000Y-170444999D01*
X170523923Y-170523785D01*
X170188144Y-170748144D01*
X170115927Y-170820361D01*
X170115927Y-159362520D01*
X170103731Y-159138035D01*
X170103731Y-156365914D01*
X169901146Y-155875620D01*
X169526353Y-155500173D01*
X169036413Y-155296732D01*
X168900324Y-155296613D01*
X167488498Y-153884787D01*
X167554206Y-153726547D01*
X167554774Y-153076306D01*
X167306462Y-152475345D01*
X166847073Y-152015154D01*
X166246547Y-151765794D01*
X165596306Y-151765226D01*
X164995345Y-152013538D01*
X164535154Y-152472927D01*
X164285794Y-153073453D01*
X164285226Y-153723694D01*
X164533538Y-154324655D01*
X164992927Y-154784846D01*
X165593453Y-155034206D01*
X165710596Y-155034308D01*
X167436385Y-156760097D01*
X167436269Y-156894086D01*
X167638854Y-157384380D01*
X168013647Y-157759827D01*
X168335118Y-157893313D01*
X168077071Y-158000200D01*
X168015417Y-158235812D01*
X168770000Y-158990395D01*
X169524583Y-158235812D01*
X169462929Y-158000200D01*
X169183688Y-157901916D01*
X169524380Y-157761146D01*
X169899827Y-157386353D01*
X170103268Y-156896413D01*
X170103731Y-156365914D01*
X170103731Y-159138035D01*
X170087148Y-158832801D01*
X169939800Y-158477071D01*
X169704188Y-158415417D01*
X168949605Y-159170000D01*
X169704188Y-159924583D01*
X169939800Y-159862929D01*
X170115927Y-159362520D01*
X170115927Y-170820361D01*
X169598144Y-171338144D01*
X169524583Y-171448236D01*
X169524583Y-160104188D01*
X168770000Y-159349605D01*
X168590395Y-159529210D01*
X168590395Y-159170000D01*
X167835812Y-158415417D01*
X167600200Y-158477071D01*
X167563500Y-158581342D01*
X167563500Y-158345191D01*
X167466827Y-158111802D01*
X167288199Y-157933173D01*
X167054810Y-157836500D01*
X166802191Y-157836500D01*
X165405191Y-157836500D01*
X165171802Y-157933173D01*
X164993173Y-158111801D01*
X164983563Y-158135000D01*
X163535197Y-158135000D01*
X163535197Y-154775225D01*
X163362767Y-154357914D01*
X163043765Y-154038355D01*
X162626756Y-153865197D01*
X162175225Y-153864803D01*
X161757914Y-154037233D01*
X161438355Y-154356235D01*
X161265197Y-154773244D01*
X161264803Y-155224775D01*
X161437233Y-155642086D01*
X161756235Y-155961645D01*
X162173244Y-156134803D01*
X162624775Y-156135197D01*
X163042086Y-155962767D01*
X163361645Y-155643765D01*
X163534803Y-155226756D01*
X163535197Y-154775225D01*
X163535197Y-158135000D01*
X163140241Y-158135000D01*
X163043765Y-158038355D01*
X162626756Y-157865197D01*
X162175225Y-157864803D01*
X161757914Y-158037233D01*
X161438355Y-158356235D01*
X161265197Y-158773244D01*
X161264803Y-159224775D01*
X161437233Y-159642086D01*
X161756235Y-159961645D01*
X162173244Y-160134803D01*
X162217289Y-160134841D01*
X162217290Y-160134841D01*
X162570000Y-160205000D01*
X164983564Y-160205000D01*
X164993173Y-160228198D01*
X165171801Y-160406827D01*
X165405190Y-160503500D01*
X165657809Y-160503500D01*
X167054809Y-160503500D01*
X167288198Y-160406827D01*
X167466827Y-160228199D01*
X167563500Y-159994810D01*
X167563500Y-159774327D01*
X167600200Y-159862929D01*
X167835812Y-159924583D01*
X168590395Y-159170000D01*
X168590395Y-159529210D01*
X168015417Y-160104188D01*
X168077071Y-160339800D01*
X168577480Y-160515927D01*
X169107199Y-160487148D01*
X169462929Y-160339800D01*
X169524583Y-160104188D01*
X169524583Y-171448236D01*
X169373785Y-171673923D01*
X169294999Y-172070000D01*
X169295000Y-172070005D01*
X169295000Y-175351590D01*
X169081810Y-175564409D01*
X168857056Y-176105677D01*
X168856545Y-176691752D01*
X169080353Y-177233411D01*
X169494409Y-177648190D01*
X170035677Y-177872944D01*
X170621752Y-177873455D01*
X171163411Y-177649647D01*
X171578190Y-177235591D01*
X171600441Y-177182004D01*
X171834587Y-177255808D01*
X172690395Y-176400000D01*
X171834587Y-175544192D01*
X171600836Y-175617870D01*
X171579647Y-175566589D01*
X171365000Y-175351567D01*
X171365000Y-172515000D01*
X171623690Y-172515000D01*
X171972927Y-172864846D01*
X172573453Y-173114206D01*
X173223694Y-173114774D01*
X173824655Y-172866462D01*
X174284846Y-172407073D01*
X174534206Y-171806547D01*
X174534774Y-171156306D01*
X174534774Y-179165000D01*
X174354977Y-179165000D01*
X174354977Y-176625903D01*
X174328389Y-176040431D01*
X174155490Y-175623017D01*
X173905413Y-175544192D01*
X173725808Y-175723797D01*
X173725808Y-175364587D01*
X173646983Y-175114510D01*
X173095903Y-174915023D01*
X172510431Y-174941611D01*
X172093017Y-175114510D01*
X172014192Y-175364587D01*
X172870000Y-176220395D01*
X173725808Y-175364587D01*
X173725808Y-175723797D01*
X173049605Y-176400000D01*
X173905413Y-177255808D01*
X174155490Y-177176983D01*
X174354977Y-176625903D01*
X174354977Y-179165000D01*
X173725808Y-179165000D01*
X173725808Y-177435413D01*
X172870000Y-176579605D01*
X172014192Y-177435413D01*
X172093017Y-177685490D01*
X172644097Y-177884977D01*
X173229569Y-177858389D01*
X173646983Y-177685490D01*
X173725808Y-177435413D01*
X173725808Y-179165000D01*
X163535197Y-179165000D01*
X163535197Y-169775225D01*
X163362767Y-169357914D01*
X163043765Y-169038355D01*
X162801446Y-168937734D01*
X160235000Y-166371288D01*
X160235000Y-161900005D01*
X160235000Y-161900000D01*
X160235001Y-161900000D01*
X160156215Y-161503923D01*
X159931856Y-161168144D01*
X157813711Y-159049999D01*
X158831852Y-158031858D01*
X158831855Y-158031856D01*
X158831856Y-158031856D01*
X159056215Y-157696077D01*
X159135000Y-157300000D01*
X159135001Y-157300000D01*
X159135000Y-157299994D01*
X159135000Y-153800005D01*
X159135000Y-153800000D01*
X159135001Y-153800000D01*
X159056215Y-153403923D01*
X158831856Y-153068145D01*
X158831856Y-153068144D01*
X158831852Y-153068141D01*
X153991856Y-148228144D01*
X153656077Y-148003785D01*
X153260000Y-147924999D01*
X153259994Y-147925000D01*
X149433559Y-147925000D01*
X149415922Y-147882314D01*
X149235000Y-147701075D01*
X149235000Y-145744559D01*
X149457874Y-145522074D01*
X149684372Y-144976607D01*
X149684888Y-144385984D01*
X149459342Y-143840123D01*
X149042074Y-143422126D01*
X148496607Y-143195628D01*
X147905984Y-143195112D01*
X147360123Y-143420658D01*
X146942126Y-143837926D01*
X146715628Y-144383393D01*
X146715112Y-144974016D01*
X146940658Y-145519877D01*
X147165000Y-145744610D01*
X147165000Y-147161163D01*
X146722314Y-147344078D01*
X146185961Y-147879495D01*
X145895332Y-148579410D01*
X145894670Y-149337265D01*
X146184078Y-150037686D01*
X146719495Y-150574039D01*
X147419410Y-150864668D01*
X148177265Y-150865330D01*
X148877686Y-150575922D01*
X149414039Y-150040505D01*
X149432934Y-149995000D01*
X152831288Y-149995000D01*
X156754551Y-153918262D01*
X156626756Y-153865197D01*
X156175225Y-153864803D01*
X155932730Y-153965000D01*
X155000000Y-153965000D01*
X154603922Y-154043785D01*
X154469428Y-154133650D01*
X154268144Y-154268144D01*
X154268141Y-154268147D01*
X149705000Y-158831288D01*
X149705000Y-155436309D01*
X149705000Y-154325750D01*
X149705000Y-153754250D01*
X149705000Y-152643691D01*
X149608327Y-152410302D01*
X149429699Y-152231673D01*
X149196310Y-152135000D01*
X148943691Y-152135000D01*
X148085750Y-152135000D01*
X147927000Y-152293750D01*
X147927000Y-153913000D01*
X149546250Y-153913000D01*
X149705000Y-153754250D01*
X149705000Y-154325750D01*
X149546250Y-154167000D01*
X147927000Y-154167000D01*
X147927000Y-155786250D01*
X148085750Y-155945000D01*
X148943691Y-155945000D01*
X149196310Y-155945000D01*
X149429699Y-155848327D01*
X149608327Y-155669698D01*
X149705000Y-155436309D01*
X149705000Y-158831288D01*
X149457157Y-159079131D01*
X149429699Y-159051673D01*
X149196310Y-158955000D01*
X148943691Y-158955000D01*
X147673000Y-158955000D01*
X147673000Y-155786250D01*
X147673000Y-154167000D01*
X147673000Y-153913000D01*
X147673000Y-152293750D01*
X147514250Y-152135000D01*
X146656309Y-152135000D01*
X146403690Y-152135000D01*
X146170301Y-152231673D01*
X145991673Y-152410302D01*
X145895000Y-152643691D01*
X145895000Y-153754250D01*
X146053750Y-153913000D01*
X147673000Y-153913000D01*
X147673000Y-154167000D01*
X146053750Y-154167000D01*
X145895000Y-154325750D01*
X145895000Y-155436309D01*
X145991673Y-155669698D01*
X146170301Y-155848327D01*
X146403690Y-155945000D01*
X146656309Y-155945000D01*
X147514250Y-155945000D01*
X147673000Y-155786250D01*
X147673000Y-158955000D01*
X146403691Y-158955000D01*
X146170302Y-159051673D01*
X145991673Y-159230301D01*
X145895000Y-159463690D01*
X145895000Y-159716309D01*
X145895000Y-162256309D01*
X145991673Y-162489698D01*
X146170301Y-162668327D01*
X146403690Y-162765000D01*
X146656309Y-162765000D01*
X149196309Y-162765000D01*
X149429698Y-162668327D01*
X149608327Y-162489699D01*
X149705000Y-162256310D01*
X149705000Y-162003691D01*
X149705000Y-161703344D01*
X149871856Y-161591856D01*
X155428711Y-156035000D01*
X155932892Y-156035000D01*
X156173244Y-156134803D01*
X156624775Y-156135197D01*
X157042086Y-155962767D01*
X157065000Y-155939892D01*
X157065000Y-156871288D01*
X155998438Y-157937850D01*
X155757914Y-158037233D01*
X155438355Y-158356235D01*
X155265197Y-158773244D01*
X155264803Y-159224775D01*
X155437233Y-159642086D01*
X155756235Y-159961645D01*
X155827542Y-159991254D01*
X158165000Y-162328712D01*
X158165000Y-166799994D01*
X158164999Y-166800000D01*
X158243785Y-167196077D01*
X158468144Y-167531856D01*
X161337849Y-170401560D01*
X161437233Y-170642086D01*
X161756235Y-170961645D01*
X162173244Y-171134803D01*
X162624775Y-171135197D01*
X163042086Y-170962767D01*
X163361645Y-170643765D01*
X163534803Y-170226756D01*
X163535197Y-169775225D01*
X163535197Y-179165000D01*
X157535197Y-179165000D01*
X157535197Y-169775225D01*
X157362767Y-169357914D01*
X157043765Y-169038355D01*
X156626756Y-168865197D01*
X156175225Y-168864803D01*
X155757914Y-169037233D01*
X155438355Y-169356235D01*
X155265197Y-169773244D01*
X155264803Y-170224775D01*
X155437233Y-170642086D01*
X155756235Y-170961645D01*
X156173244Y-171134803D01*
X156624775Y-171135197D01*
X157042086Y-170962767D01*
X157361645Y-170643765D01*
X157534803Y-170226756D01*
X157535197Y-169775225D01*
X157535197Y-179165000D01*
X149714261Y-179165000D01*
X149714261Y-166268964D01*
X149694436Y-165511368D01*
X149442657Y-164903520D01*
X149147777Y-164771828D01*
X148968172Y-164951433D01*
X148968172Y-164592223D01*
X148836480Y-164297343D01*
X148128964Y-164025739D01*
X147371368Y-164045564D01*
X146763520Y-164297343D01*
X146631828Y-164592223D01*
X147800000Y-165760395D01*
X148968172Y-164592223D01*
X148968172Y-164951433D01*
X147979605Y-165940000D01*
X149147777Y-167108172D01*
X149442657Y-166976480D01*
X149714261Y-166268964D01*
X149714261Y-179165000D01*
X149628711Y-179165000D01*
X148968172Y-178504460D01*
X148968172Y-167287777D01*
X147800000Y-166119605D01*
X147620395Y-166299210D01*
X147620395Y-165940000D01*
X146452223Y-164771828D01*
X146157343Y-164903520D01*
X145885739Y-165611036D01*
X145905564Y-166368632D01*
X146157343Y-166976480D01*
X146452223Y-167108172D01*
X147620395Y-165940000D01*
X147620395Y-166299210D01*
X146631828Y-167287777D01*
X146763520Y-167582657D01*
X147471036Y-167854261D01*
X148228632Y-167834436D01*
X148836480Y-167582657D01*
X148968172Y-167287777D01*
X148968172Y-178504460D01*
X145235000Y-174771288D01*
X145235000Y-131728711D01*
X145296711Y-131667000D01*
X146648309Y-131667000D01*
X146881698Y-131570327D01*
X147060327Y-131391699D01*
X147157000Y-131158310D01*
X147157000Y-131102386D01*
X147507630Y-131453629D01*
X148020900Y-131666757D01*
X148576661Y-131667242D01*
X149090303Y-131455010D01*
X149483629Y-131062370D01*
X149569949Y-130854487D01*
X149654990Y-131060303D01*
X150047630Y-131453629D01*
X150560900Y-131666757D01*
X151116661Y-131667242D01*
X151630303Y-131455010D01*
X152023629Y-131062370D01*
X152109949Y-130854487D01*
X152194990Y-131060303D01*
X152587630Y-131453629D01*
X153100900Y-131666757D01*
X153656661Y-131667242D01*
X154170303Y-131455010D01*
X154563629Y-131062370D01*
X154643394Y-130870272D01*
X154697603Y-131001143D01*
X154939787Y-131070608D01*
X155740395Y-130270000D01*
X154939787Y-129469392D01*
X154697603Y-129538857D01*
X154647491Y-129679317D01*
X154565010Y-129479697D01*
X154172370Y-129086371D01*
X153964487Y-129000050D01*
X154170303Y-128915010D01*
X154563629Y-128522370D01*
X154649949Y-128314487D01*
X154734990Y-128520303D01*
X155127630Y-128913629D01*
X155319727Y-128993394D01*
X155188857Y-129047603D01*
X155119392Y-129289787D01*
X155920000Y-130090395D01*
X156720608Y-129289787D01*
X156651143Y-129047603D01*
X156510682Y-128997491D01*
X156710303Y-128915010D01*
X157103629Y-128522370D01*
X157189949Y-128314487D01*
X157274990Y-128520303D01*
X157667630Y-128913629D01*
X157875512Y-128999949D01*
X157669697Y-129084990D01*
X157276371Y-129477630D01*
X157196605Y-129669727D01*
X157142397Y-129538857D01*
X156900213Y-129469392D01*
X156099605Y-130270000D01*
X156900213Y-131070608D01*
X157142397Y-131001143D01*
X157192508Y-130860682D01*
X157274990Y-131060303D01*
X157571319Y-131357150D01*
X157728144Y-131591856D01*
X160368141Y-134231852D01*
X160368144Y-134231856D01*
X160368145Y-134231856D01*
X160703923Y-134456215D01*
X161100000Y-134535001D01*
X161100000Y-134535000D01*
X161100005Y-134535000D01*
X170471288Y-134535000D01*
X174175000Y-138238711D01*
X174175000Y-139080087D01*
X173939742Y-139314934D01*
X173570421Y-138944968D01*
X172987159Y-138702776D01*
X172355612Y-138702225D01*
X171771928Y-138943398D01*
X171399742Y-139314934D01*
X171030421Y-138944968D01*
X170447159Y-138702776D01*
X169815612Y-138702225D01*
X169231928Y-138943398D01*
X168859742Y-139314934D01*
X168490421Y-138944968D01*
X167907159Y-138702776D01*
X167275612Y-138702225D01*
X166691928Y-138943398D01*
X166379781Y-139255000D01*
X164110000Y-139255000D01*
X163713922Y-139333785D01*
X163579428Y-139423650D01*
X163378144Y-139558144D01*
X163378141Y-139558147D01*
X162468144Y-140468144D01*
X162243785Y-140803923D01*
X162164999Y-141200000D01*
X162165000Y-141200005D01*
X162165000Y-141995000D01*
X160858711Y-141995000D01*
X159547521Y-140683809D01*
X159884846Y-140347073D01*
X160134206Y-139746547D01*
X160134774Y-139096306D01*
X159886462Y-138495345D01*
X159427073Y-138035154D01*
X158826547Y-137785794D01*
X158176306Y-137785226D01*
X157575345Y-138033538D01*
X157115154Y-138492927D01*
X156865794Y-139093453D01*
X156865359Y-139590929D01*
X156720608Y-139735679D01*
X156720608Y-131250213D01*
X155920000Y-130449605D01*
X155119392Y-131250213D01*
X155188857Y-131492397D01*
X155712302Y-131679144D01*
X156267368Y-131651362D01*
X156651143Y-131492397D01*
X156720608Y-131250213D01*
X156720608Y-139735679D01*
X153584888Y-142871399D01*
X153584888Y-134225984D01*
X153359342Y-133680123D01*
X152942074Y-133262126D01*
X152396607Y-133035628D01*
X151805984Y-133035112D01*
X151260123Y-133260658D01*
X151035389Y-133485000D01*
X149660166Y-133485000D01*
X149587957Y-133310672D01*
X149409329Y-133132043D01*
X149175940Y-133035370D01*
X148923321Y-133035370D01*
X147224061Y-133035370D01*
X146990672Y-133132043D01*
X146812043Y-133310671D01*
X146715370Y-133544060D01*
X146715370Y-133796679D01*
X146715370Y-135495939D01*
X146812043Y-135729328D01*
X146990671Y-135907957D01*
X147224060Y-136004630D01*
X147476679Y-136004630D01*
X149175939Y-136004630D01*
X149409328Y-135907957D01*
X149587957Y-135729329D01*
X149660166Y-135555000D01*
X151035440Y-135555000D01*
X151257926Y-135777874D01*
X151803393Y-136004372D01*
X152394016Y-136004888D01*
X152939877Y-135779342D01*
X153357874Y-135362074D01*
X153584372Y-134816607D01*
X153584888Y-134225984D01*
X153584888Y-142871399D01*
X153206739Y-143249548D01*
X153075940Y-143195370D01*
X152823321Y-143195370D01*
X151124061Y-143195370D01*
X150890672Y-143292043D01*
X150712043Y-143470671D01*
X150615370Y-143704060D01*
X150615370Y-143956679D01*
X150615370Y-145655939D01*
X150712043Y-145889328D01*
X150890671Y-146067957D01*
X151124060Y-146164630D01*
X151376679Y-146164630D01*
X153075939Y-146164630D01*
X153309328Y-146067957D01*
X153487957Y-145889329D01*
X153584630Y-145655940D01*
X153584630Y-145646448D01*
X153636077Y-145636215D01*
X153971856Y-145411856D01*
X157681511Y-141702200D01*
X157768144Y-141831856D01*
X159698141Y-143761852D01*
X159698144Y-143761856D01*
X159899428Y-143896349D01*
X160033922Y-143986215D01*
X160033923Y-143986215D01*
X160430000Y-144065001D01*
X160430000Y-144065000D01*
X160430005Y-144065000D01*
X162275411Y-144065000D01*
X162414113Y-144203944D01*
X162629496Y-144293378D01*
X162475735Y-144357069D01*
X162407675Y-144598070D01*
X163200000Y-145390395D01*
X163992325Y-144598070D01*
X163924265Y-144357069D01*
X163758959Y-144298231D01*
X163983837Y-144205314D01*
X164373944Y-143815887D01*
X164585329Y-143306816D01*
X164585810Y-142755602D01*
X164375314Y-142246163D01*
X164235000Y-142105603D01*
X164235000Y-141628711D01*
X164538711Y-141325000D01*
X166380087Y-141325000D01*
X166555000Y-141500218D01*
X166555000Y-143190000D01*
X166574391Y-143287484D01*
X166573898Y-143386884D01*
X166613402Y-143483609D01*
X166633785Y-143586077D01*
X166689008Y-143668724D01*
X166726590Y-143760742D01*
X166800096Y-143834980D01*
X166858144Y-143921856D01*
X166940792Y-143977079D01*
X167010726Y-144047710D01*
X169020726Y-145405209D01*
X169117052Y-145445669D01*
X169203923Y-145503714D01*
X169301410Y-145523105D01*
X169393052Y-145561598D01*
X169497529Y-145562116D01*
X169600000Y-145582499D01*
X177702314Y-145582499D01*
X179765000Y-148162840D01*
X179765000Y-149091716D01*
X179686838Y-149013554D01*
X179572556Y-149127835D01*
X179473958Y-148861035D01*
X178864418Y-148634599D01*
X178214623Y-148658659D01*
X177726042Y-148861035D01*
X177627443Y-149127837D01*
X178600000Y-150100395D01*
X178614142Y-150086252D01*
X178793747Y-150265857D01*
X178779605Y-150280000D01*
X178793747Y-150294142D01*
X178614142Y-150473747D01*
X178600000Y-150459605D01*
X178420395Y-150639210D01*
X178420395Y-150280000D01*
X177447837Y-149307443D01*
X177181035Y-149406042D01*
X176954599Y-150015582D01*
X176978659Y-150665377D01*
X177181035Y-151153958D01*
X177447837Y-151252557D01*
X178420395Y-150280000D01*
X178420395Y-150639210D01*
X177627443Y-151432163D01*
X177726042Y-151698965D01*
X178335582Y-151925401D01*
X178985377Y-151901341D01*
X179473958Y-151698965D01*
X179572556Y-151432164D01*
X179572557Y-151432165D01*
X179686838Y-151546446D01*
X179765000Y-151468284D01*
X179765000Y-160426098D01*
X179572557Y-160354979D01*
X179552163Y-160347443D01*
X179372557Y-160527048D01*
X179372557Y-160167837D01*
X179273958Y-159901035D01*
X178664418Y-159674599D01*
X178014623Y-159698659D01*
X177714774Y-159822859D01*
X177714774Y-153076306D01*
X177466462Y-152475345D01*
X177115000Y-152123269D01*
X177115000Y-151780005D01*
X177115000Y-151780000D01*
X177115001Y-151780000D01*
X177036215Y-151383923D01*
X177036215Y-151383922D01*
X176946349Y-151249428D01*
X176811856Y-151048144D01*
X176811852Y-151048141D01*
X176808675Y-151044964D01*
X176808675Y-148163199D01*
X176783878Y-147532139D01*
X176590088Y-147064288D01*
X176328159Y-146971446D01*
X176148554Y-147151051D01*
X176148554Y-146791841D01*
X176055712Y-146529912D01*
X175463199Y-146311325D01*
X174832139Y-146336122D01*
X174364288Y-146529912D01*
X174271446Y-146791841D01*
X175210000Y-147730395D01*
X176148554Y-146791841D01*
X176148554Y-147151051D01*
X175389605Y-147910000D01*
X176328159Y-148848554D01*
X176590088Y-148755712D01*
X176808675Y-148163199D01*
X176808675Y-151044964D01*
X175260454Y-149496743D01*
X175587861Y-149483878D01*
X176055712Y-149290088D01*
X176148554Y-149028159D01*
X175210000Y-148089605D01*
X175195857Y-148103747D01*
X175016252Y-147924142D01*
X175030395Y-147910000D01*
X174091841Y-146971446D01*
X174006416Y-147001725D01*
X173570421Y-146564968D01*
X172987159Y-146322776D01*
X172355612Y-146322225D01*
X171771928Y-146563398D01*
X171399742Y-146934934D01*
X171030421Y-146564968D01*
X170447159Y-146322776D01*
X169815612Y-146322225D01*
X169231928Y-146563398D01*
X168859742Y-146934934D01*
X168490421Y-146564968D01*
X167907159Y-146322776D01*
X167275612Y-146322225D01*
X166691928Y-146563398D01*
X166379781Y-146875000D01*
X164597767Y-146875000D01*
X164597767Y-145774966D01*
X164569805Y-145224462D01*
X164412931Y-144845735D01*
X164171930Y-144777675D01*
X163379605Y-145570000D01*
X164171930Y-146362325D01*
X164412931Y-146294265D01*
X164597767Y-145774966D01*
X164597767Y-146875000D01*
X163701990Y-146875000D01*
X163924265Y-146782931D01*
X163992325Y-146541930D01*
X163200000Y-145749605D01*
X163020395Y-145929210D01*
X163020395Y-145570000D01*
X162228070Y-144777675D01*
X161987069Y-144845735D01*
X161802233Y-145365034D01*
X161830195Y-145915538D01*
X161987069Y-146294265D01*
X162228070Y-146362325D01*
X163020395Y-145570000D01*
X163020395Y-145929210D01*
X162407675Y-146541930D01*
X162475735Y-146782931D01*
X162734403Y-146875000D01*
X162190005Y-146875000D01*
X162190000Y-146874999D01*
X161793923Y-146953785D01*
X161458144Y-147178144D01*
X161458141Y-147178147D01*
X160091288Y-148545000D01*
X159776309Y-148545000D01*
X159427073Y-148195154D01*
X158826547Y-147945794D01*
X158176306Y-147945226D01*
X157575345Y-148193538D01*
X157115154Y-148652927D01*
X156865794Y-149253453D01*
X156865226Y-149903694D01*
X157113538Y-150504655D01*
X157572927Y-150964846D01*
X158173453Y-151214206D01*
X158823694Y-151214774D01*
X159424655Y-150966462D01*
X159776730Y-150615000D01*
X160519994Y-150615000D01*
X160520000Y-150615001D01*
X160520000Y-150615000D01*
X160916077Y-150536215D01*
X161251856Y-150311856D01*
X162618711Y-148945000D01*
X166380087Y-148945000D01*
X166689579Y-149255032D01*
X167272841Y-149497224D01*
X167904388Y-149497775D01*
X168488072Y-149256602D01*
X168860257Y-148885065D01*
X169095000Y-149120218D01*
X169095000Y-154229994D01*
X169094999Y-154230000D01*
X169173785Y-154626077D01*
X169398144Y-154961856D01*
X171865000Y-157428711D01*
X171865000Y-160043690D01*
X171515154Y-160392927D01*
X171265794Y-160993453D01*
X171265226Y-161643694D01*
X171513538Y-162244655D01*
X171972927Y-162704846D01*
X172573453Y-162954206D01*
X173223694Y-162954774D01*
X173824655Y-162706462D01*
X174284846Y-162247073D01*
X174534206Y-161646547D01*
X174534774Y-160996306D01*
X174286462Y-160395345D01*
X173935000Y-160043269D01*
X173935000Y-157000005D01*
X173935000Y-157000000D01*
X173935001Y-157000000D01*
X173856215Y-156603923D01*
X173631856Y-156268145D01*
X173631856Y-156268144D01*
X173631852Y-156268141D01*
X171165000Y-153801288D01*
X171165000Y-149119912D01*
X171400257Y-148885065D01*
X171769579Y-149255032D01*
X172319786Y-149483498D01*
X175002452Y-152166163D01*
X174695154Y-152472927D01*
X174445794Y-153073453D01*
X174445226Y-153723694D01*
X174693538Y-154324655D01*
X175152927Y-154784846D01*
X175753453Y-155034206D01*
X176403694Y-155034774D01*
X177004655Y-154786462D01*
X177464846Y-154327073D01*
X177714206Y-153726547D01*
X177714774Y-153076306D01*
X177714774Y-159822859D01*
X177526042Y-159901035D01*
X177427443Y-160167837D01*
X178400000Y-161140395D01*
X179372557Y-160167837D01*
X179372557Y-160527048D01*
X178579605Y-161320000D01*
X179552163Y-162292557D01*
X179765000Y-162213901D01*
X179765000Y-163271288D01*
X179372557Y-163663731D01*
X179372557Y-162472163D01*
X178400000Y-161499605D01*
X178220395Y-161679210D01*
X178220395Y-161320000D01*
X177247837Y-160347443D01*
X176981035Y-160446042D01*
X176754599Y-161055582D01*
X176778659Y-161705377D01*
X176981035Y-162193958D01*
X177247837Y-162292557D01*
X178220395Y-161320000D01*
X178220395Y-161679210D01*
X177427443Y-162472163D01*
X177526042Y-162738965D01*
X178135582Y-162965401D01*
X178785377Y-162941341D01*
X179273958Y-162738965D01*
X179372557Y-162472163D01*
X179372557Y-163663731D01*
X175068144Y-167968144D01*
X174843785Y-168303923D01*
X174764999Y-168700000D01*
X174765000Y-168700005D01*
X174765000Y-175069994D01*
X174764999Y-175070000D01*
X174843785Y-175466077D01*
X175068144Y-175801856D01*
X175756807Y-176490519D01*
X175756545Y-176791752D01*
X175980353Y-177333411D01*
X176394409Y-177748190D01*
X176935677Y-177972944D01*
X177521752Y-177973455D01*
X178063411Y-177749647D01*
X178478190Y-177335591D01*
X178499775Y-177283608D01*
X178520353Y-177333411D01*
X178934409Y-177748190D01*
X179475677Y-177972944D01*
X180061752Y-177973455D01*
X180603411Y-177749647D01*
X181018190Y-177335591D01*
X181242944Y-176794323D01*
X181243455Y-176208248D01*
X181019647Y-175666589D01*
X180805000Y-175451567D01*
X180805000Y-174570005D01*
X180805000Y-174570000D01*
X180805001Y-174570000D01*
X180726215Y-174173923D01*
X180501856Y-173838145D01*
X180501856Y-173838144D01*
X180501852Y-173838141D01*
X179435000Y-172771288D01*
X179435000Y-172756309D01*
X179784846Y-172407073D01*
X180034206Y-171806547D01*
X180034774Y-171156306D01*
X179786462Y-170555345D01*
X179327073Y-170095154D01*
X178726547Y-169845794D01*
X178076306Y-169845226D01*
X177475345Y-170093538D01*
X177015154Y-170552927D01*
X176835000Y-170986786D01*
X176835000Y-169128711D01*
X181531852Y-164431858D01*
X181531856Y-164431856D01*
X181531856Y-164431855D01*
X181706607Y-164170319D01*
X185588141Y-168051852D01*
X185588144Y-168051856D01*
X185588145Y-168051856D01*
X185923923Y-168276215D01*
X186320000Y-168355001D01*
X186320000Y-168355000D01*
X186320005Y-168355000D01*
X191306440Y-168355000D01*
X191324078Y-168397686D01*
X191859495Y-168934039D01*
X192559410Y-169224668D01*
X193317265Y-169225330D01*
X194017686Y-168935922D01*
X194554039Y-168400505D01*
X194844668Y-167700590D01*
X194845330Y-166942735D01*
X194555922Y-166242314D01*
X194348969Y-166035000D01*
X196071288Y-166035000D01*
X197465000Y-167428711D01*
X197465000Y-174959260D01*
X197316371Y-175107630D01*
X197103243Y-175620900D01*
X197102758Y-176176661D01*
X197314990Y-176690303D01*
X197707630Y-177083629D01*
X198220900Y-177296757D01*
X198776661Y-177297242D01*
X199290303Y-177085010D01*
X199683629Y-176692370D01*
X199896757Y-176179100D01*
X199897242Y-175623339D01*
X199685010Y-175109697D01*
X199535000Y-174959424D01*
X199535000Y-167000005D01*
X199535000Y-167000000D01*
X199535001Y-167000000D01*
X199456215Y-166603923D01*
X199231856Y-166268144D01*
X199231852Y-166268141D01*
X197231856Y-164268144D01*
X196896077Y-164043785D01*
X196500000Y-163964999D01*
X196499994Y-163965000D01*
X186728711Y-163965000D01*
X184835000Y-162071288D01*
X184835000Y-146500005D01*
X184835000Y-146500000D01*
X184835001Y-146500000D01*
X184756215Y-146103923D01*
X184531856Y-145768144D01*
X182035000Y-143271288D01*
X182035000Y-129700005D01*
X182035000Y-129700000D01*
X182035001Y-129700000D01*
X181956215Y-129303923D01*
X181731856Y-128968145D01*
X181731856Y-128968144D01*
X181731852Y-128968141D01*
X178473711Y-125710000D01*
X227790000Y-125710000D01*
X227790000Y-141290000D01*
X217500000Y-141290000D01*
X217228295Y-141344046D01*
X216997954Y-141497954D01*
X216844046Y-141728295D01*
X216790000Y-142000000D01*
X216790000Y-157000000D01*
X216844046Y-157271705D01*
X216997954Y-157502046D01*
X217228295Y-157655954D01*
X217500000Y-157710000D01*
X227790000Y-157710000D01*
X227790000Y-180290000D01*
M02*
