%FSLAX46Y46*%
G04 Gerber Fmt 4.6, Leading zero omitted, Abs format (unit mm)*
G04 Created by KiCad (PCBNEW (2014-09-02 BZR 5112)-product) date dim. 28 sept. 2014 14:48:00 CEST*
%MOMM*%
G01*
G04 APERTURE LIST*
%ADD10C,0.150000*%
%ADD11C,0.381000*%
%ADD12C,1.501140*%
%ADD13C,1.676400*%
%ADD14C,1.699260*%
%ADD15R,1.699260X1.699260*%
%ADD16C,1.905000*%
%ADD17C,1.000000*%
%ADD18R,2.540000X2.540000*%
%ADD19C,2.540000*%
%ADD20C,1.998980*%
%ADD21R,1.524000X1.524000*%
%ADD22C,1.524000*%
%ADD23R,1.397000X1.397000*%
%ADD24C,1.397000*%
G04 APERTURE END LIST*
D10*
D11*
X164724000Y-143233200D02*
X164724000Y-144300000D01*
X165232000Y-143792000D02*
X164190600Y-143792000D01*
D12*
X163200000Y-145570000D03*
X163200000Y-143030000D03*
D13*
X177230000Y-176500000D03*
X179770000Y-176500000D03*
D14*
X148200000Y-144680000D03*
D15*
X148200000Y-134520000D03*
D14*
X152100000Y-134520000D03*
D15*
X152100000Y-144680000D03*
D13*
X170330000Y-176400000D03*
X172870000Y-176400000D03*
D16*
X167590000Y-147910000D03*
X170130000Y-147910000D03*
X172670000Y-147910000D03*
X175210000Y-147910000D03*
X175210000Y-140290000D03*
X172670000Y-140290000D03*
X170130000Y-140290000D03*
X167590000Y-140290000D03*
D17*
X162400000Y-159000000D03*
X156400000Y-159000000D03*
X156400000Y-170000000D03*
X162400000Y-155000000D03*
X162400000Y-170000000D03*
X156400000Y-155000000D03*
D18*
X147800000Y-154040000D03*
D19*
X147800000Y-148960000D03*
D18*
X147800000Y-160860000D03*
D19*
X147800000Y-165940000D03*
D20*
X178400000Y-171480000D03*
X178400000Y-161320000D03*
X158500000Y-149580000D03*
X158500000Y-139420000D03*
X165920000Y-153400000D03*
X176080000Y-153400000D03*
X172900000Y-161320000D03*
X172900000Y-171480000D03*
X178600000Y-140120000D03*
X178600000Y-150280000D03*
D19*
X192940000Y-167320000D03*
X187860000Y-177480000D03*
D21*
X145760000Y-130270000D03*
D22*
X145760000Y-127730000D03*
X148300000Y-130270000D03*
X148300000Y-127730000D03*
X150840000Y-130270000D03*
X150840000Y-127730000D03*
X153380000Y-130270000D03*
X153380000Y-127730000D03*
X155920000Y-130270000D03*
X155920000Y-127730000D03*
X158460000Y-130270000D03*
X158460000Y-127730000D03*
X161000000Y-130270000D03*
X161000000Y-127730000D03*
X163540000Y-130270000D03*
X163540000Y-127730000D03*
X166080000Y-130270000D03*
X166080000Y-127730000D03*
X168620000Y-130270000D03*
X168620000Y-127730000D03*
X171160000Y-130270000D03*
X171160000Y-127730000D03*
X173700000Y-130270000D03*
X173700000Y-127730000D03*
X176240000Y-130270000D03*
X176240000Y-127730000D03*
D23*
X166230000Y-159170000D03*
D24*
X168770000Y-159170000D03*
X168770000Y-156630000D03*
D22*
X201400000Y-175900000D03*
X204200000Y-175900000D03*
X198500000Y-175900000D03*
M02*
